<?xml version="1.0" encoding="utf-8"?>
<!-- Generator: Adobe Illustrator 16.0.0, SVG Export Plug-In . SVG Version: 6.00 Build 0)  -->
<!DOCTYPE svg PUBLIC "-//W3C//DTD SVG 1.1//EN" "http://www.w3.org/Graphics/SVG/1.1/DTD/svg11.dtd">
<svg version="1.1" id="Ebene_1" xmlns="http://www.w3.org/2000/svg" xmlns:xlink="http://www.w3.org/1999/xlink" x="0px" y="0px"
	 width="566.93px" height="59.527px" viewBox="0 0 566.93 59.527" enable-background="new 0 0 566.93 59.527" xml:space="preserve">
<g>
	<path fill="#3C3C3B" d="M44.776,37.678l-1.117,3.827c-0.66,3.038-0.989,4.601-0.989,4.687c-0.144,0.144-0.588,0.058-1.333-0.258
		c-0.574-0.315-0.903-0.652-0.989-1.011s-0.036-0.73,0.15-1.117c0.187-0.388,0.652-1.985,1.397-4.795
		c0.345-0.975,0.745-2.336,1.204-4.085c0.458-1.748,0.717-2.651,0.774-2.709v-0.43c0-0.144-1.169-0.208-3.505-0.193
		c-2.337,0.015-4.293,0.122-5.869,0.322h-3.14c-0.144,0.315-0.58,1.642-1.311,3.978c-0.731,2.337-1.298,4.486-1.699,6.45
		s-0.889,3.819-1.462,5.568c-0.287-0.145-0.588-0.216-0.903-0.216c-0.43-0.114-0.752-0.365-0.967-0.752s-0.266-0.811-0.15-1.269
		c0.229-0.229,0.344-0.774,0.344-1.634c0.143-0.286,0.308-0.896,0.494-1.828c0.187-0.931,0.695-2.888,1.526-5.869
		s1.348-4.572,1.549-4.773v-0.473c0-0.43,0.157-0.874,0.473-1.333c0.286-0.859,0.43-1.447,0.43-1.763l2.494-6.063v-0.215
		c0.058-0.057,0.415-0.823,1.075-2.301c0.659-1.476,1.104-2.457,1.333-2.945c0.229-0.487,0.401-0.838,0.516-1.054
		c0.114-0.215,0.215-0.394,0.301-0.537c0.087-0.143,0.13-0.258,0.13-0.344c0.229-0.315,0.565-0.394,1.01-0.236
		s0.781,0.466,1.011,0.924l0.43,0.688l-1.548,3.096c-1.061,1.864-1.591,2.981-1.591,3.354c-0.66,1.662-1.111,2.881-1.354,3.654
		c-0.244,0.774-0.48,1.419-0.709,1.936c-0.459,1.032-0.688,1.591-0.688,1.677c0-0.086,0.788-0.143,2.365-0.172
		c4.988-0.028,7.754-0.086,8.299-0.172l2.236-0.215l3.354-10.277c0.43-1.232,0.774-2.027,1.032-2.387
		c0.258-0.357,0.516-0.537,0.773-0.537c0.259,0,0.523,0.064,0.796,0.193s0.451,0.294,0.537,0.494
		c0.659,0.603,0.588,1.491-0.215,2.666c-0.459,0.803-0.867,1.735-1.226,2.795c-0.358,1.062-0.595,1.706-0.709,1.936
		c0,0.602-0.101,1.004-0.301,1.204c-0.201,0.2-0.445,0.652-0.731,1.354c-0.287,0.702-0.43,1.232-0.43,1.591
		s-0.144,0.682-0.431,0.968C46.152,33.55,45.264,36.417,44.776,37.678z"/>
	<path fill="#3C3C3B" d="M57.312,40.666c0.071-0.043,0.114-0.064,0.129-0.064c0.014,0,0.043-0.014,0.086-0.043
		c0.043-0.028,0.064-0.057,0.064-0.086c0.2-0.172,0.451-0.408,0.753-0.709c0.301-0.302,0.522-0.452,0.666-0.452
		s0.294,0.072,0.451,0.215c0.157,0.145,0.265,0.23,0.323,0.259c0.458,0,0.394,0.372-0.194,1.117
		c-0.588,0.746-1.312,1.392-2.171,1.936c-0.918,0.803-2,1.097-3.247,0.882c-1.247-0.216-2.243-0.839-2.988-1.871
		c-0.889-1.118-1.219-2.909-0.989-5.375c0.114-1.604,0.803-3.246,2.064-4.924c1.261-1.677,2.594-2.787,3.999-3.332
		c0.401-0.258,0.774-0.394,1.118-0.408s0.924,0.036,1.741,0.15s1.455,0.459,1.914,1.032c0.716,0.717,1.074,1.548,1.074,2.493
		c-0.114,0.688-0.559,1.478-1.333,2.365c-0.773,0.889-1.706,1.606-2.795,2.15c-1.605,0.487-2.909,0.387-3.913-0.301
		c-0.516-0.2-0.867-0.157-1.053,0.129c-0.188,0.286-0.352,1.004-0.495,2.149c-0.229,1.979,0.243,3.068,1.419,3.269
		c0.114,0.028,0.286,0.064,0.517,0.107c0.229,0.043,0.379,0.071,0.451,0.086c0.071,0.015,0.193,0.028,0.365,0.043
		s0.315,0.007,0.431-0.021c0.229-0.058,0.451-0.15,0.666-0.279s0.38-0.222,0.494-0.28C57.089,40.788,57.239,40.709,57.312,40.666z
		 M57.376,33.722c0.487-0.2,0.981-0.559,1.483-1.075c0.501-0.516,0.752-0.967,0.752-1.354c0-0.387-0.2-0.702-0.602-0.945
		s-0.875-0.294-1.419-0.151c-0.545,0.145-1.104,0.474-1.677,0.989c-0.574,0.517-1.047,1.025-1.419,1.526
		c-0.373,0.502-0.517,0.796-0.431,0.882c0.114,0.229,0.573,0.358,1.376,0.387C56.243,34.009,56.888,33.923,57.376,33.722z"/>
	<path fill="#3C3C3B" d="M67.136,29.938l0.431-1.634c0.458-0.888,1.261-2.888,2.407-5.998s1.721-4.866,1.721-5.268
		s0.229-0.603,0.688-0.603c0.144-0.143,0.372-0.215,0.688-0.215l0.688,0.688c0.315,0.286,0.474,0.674,0.474,1.16
		c0,0.488-0.016,0.811-0.043,0.968c-0.029,0.158-0.059,0.301-0.086,0.43c-0.029,0.13-0.102,0.323-0.216,0.581
		s-0.215,0.487-0.301,0.688c-0.086,0.201-0.258,0.566-0.516,1.097c-0.258,0.531-0.467,0.982-0.624,1.354
		c-0.157,0.373-0.337,0.768-0.537,1.183c-0.201,0.416-0.358,0.746-0.473,0.989c-0.115,0.244-0.173,0.395-0.173,0.451
		c0,0.058-0.021,0.15-0.064,0.279c-0.043,0.13-0.107,0.302-0.193,0.517s-0.2,0.48-0.344,0.795c-1.146,2.523-1.72,3.921-1.72,4.193
		s-0.072,0.479-0.215,0.623c-0.145,0-0.216,0.115-0.216,0.344v0.129c0,0.287-0.229,1.047-0.688,2.279
		c-1.233,4.157-1.85,6.63-1.85,7.418s-0.021,1.283-0.064,1.483s-0.165,0.358-0.365,0.473c-0.832,0.229-1.397-0.114-1.698-1.032
		c-0.301-0.917-0.279-2.178,0.064-3.784c0.315-0.831,0.473-1.433,0.473-1.806c0.086-0.544,0.38-1.526,0.882-2.945
		c0.501-1.419,0.823-2.271,0.968-2.559c0.286,0,0.43-0.315,0.43-0.946C66.663,30.641,66.82,30.195,67.136,29.938z"/>
	<path fill="#3C3C3B" d="M81.11,17.554c0.86-0.745,1.57-1.232,2.129-1.462s1.153-0.344,1.784-0.344s1.226,0.279,1.785,0.838
		c0.559,0.56,0.838,1.154,0.838,1.785c0,1.376-0.702,3.096-2.106,5.16c-0.603,0.315-0.989,0.372-1.161,0.172
		c-0.058-0.058-0.043-0.144,0.043-0.259c0-0.057,0.028-0.2,0.086-0.43c0.2-0.63,0.344-1.054,0.43-1.269s0.129-0.437,0.129-0.666
		c0.487-1.893,0.474-2.838-0.043-2.838c-0.258-0.028-0.645,0.107-1.161,0.408c-0.516,0.301-0.773,0.552-0.773,0.752v0.173
		c-0.144-0.028-0.652,0.494-1.526,1.569c-0.875,1.075-1.556,2.028-2.043,2.859c-1.118,2.322-1.964,4.343-2.537,6.063l0.688,0.086
		c0.401,0.029,1.153-0.049,2.257-0.236c1.104-0.186,1.863-0.207,2.279-0.064c0.415,0.144,0.745,0.495,0.989,1.054
		c0.243,0.559,0,0.968-0.731,1.226c-0.73,0.258-2.214,0.444-4.45,0.559c-1.061-0.086-1.677-0.043-1.849,0.129
		c-0.172,0.086-0.438,0.703-0.796,1.85s-0.623,2.222-0.796,3.225c-0.315,1.262-0.501,2.616-0.559,4.063
		c-0.058,1.448,0.015,2.473,0.215,3.075c0.372,1.433,0.215,2.278-0.473,2.536c-0.574,0.058-1.061-0.351-1.462-1.226
		c-0.402-0.874-0.603-1.999-0.603-3.375c-0.229-2.179,0.345-5.719,1.721-10.621c0.4-1.433,1.16-3.439,2.278-6.02
		s1.792-3.971,2.021-4.172c0.114,0.029,0.186,0.008,0.215-0.064c0.028-0.07,0.043-0.15,0.043-0.236s0.05-0.222,0.15-0.408
		s0.236-0.43,0.408-0.731c0.173-0.301,0.315-0.565,0.431-0.795C79.534,19.088,80.251,18.3,81.11,17.554z"/>
	<path fill="#3C3C3B" d="M87.217,35.614c-0.688,1.834-1.032,3.196-1.032,4.085s0.121,1.526,0.365,1.913
		c0.243,0.387,0.702,0.58,1.376,0.58c0.673,0,1.226-0.078,1.655-0.236c0.431-0.157,1.047-0.537,1.85-1.14l1.462-0.859
		c0.114,0,0.229-0.071,0.344-0.215c0.258-0.114,0.559-0.071,0.903,0.129c0.344,0.2,0.516,0.459,0.516,0.773
		c-0.058,0.23-0.315,0.603-0.773,1.118c-0.459,0.516-0.804,0.789-1.032,0.817c-0.402,0.2-0.617,0.315-0.646,0.344h0.043
		c-0.258,0.344-0.516,0.516-0.773,0.516h-0.345c-0.114,0.23-0.494,0.459-1.139,0.688c-0.646,0.229-1.255,0.344-1.828,0.344
		c-1.262,0-2.3-0.479-3.117-1.44c-0.817-0.96-1.197-2.156-1.14-3.591c0.086-2.121,0.788-4.386,2.107-6.794
		c1.834-3.411,3.87-5.117,6.105-5.117c0.544,0,1.161,0.158,1.85,0.474c0.888,0.373,1.49,1.061,1.806,2.063
		c0.114,0.832,0.086,1.563-0.086,2.193c-0.688,2.093-1.864,3.612-3.526,4.558c-0.459,0.287-1.032,0.431-1.72,0.431
		c-1.348,0-2.322-0.431-2.924-1.29L87.217,35.614z M89.022,33.636c0,0.401,0.1,0.731,0.301,0.989c0.2,0.258,0.458,0.387,0.774,0.387
		c0.859,0,1.604-0.43,2.235-1.29s1.011-1.677,1.14-2.451c0.129-0.773,0.036-1.275-0.279-1.505c-0.688-0.344-1.663,0.043-2.924,1.161
		c-0.774,0.717-1.348,1.348-1.72,1.892l-0.56,0.903c0.229-0.086,0.458-0.136,0.688-0.15C88.907,33.558,89.022,33.579,89.022,33.636z
		"/>
	<path fill="#3C3C3B" d="M103.556,28.175c0.2,0,0.423,0.129,0.667,0.387c0.243,0.258,0.423,0.56,0.537,0.903
		c0,0.918-0.401,1.906-1.204,2.967c-0.717,1.09-1.204,2.265-1.462,3.526c-0.028,0.028-0.144,0.294-0.344,0.795
		c-0.201,0.502-0.344,0.839-0.43,1.011l-0.215,0.946l2.881-2.967c2.006-2.007,3.468-3.175,4.386-3.505
		c0.917-0.329,1.619,0.021,2.106,1.054c0.315,0.573,0.502,0.996,0.56,1.269c0.057,0.272,0.057,1.054,0,2.343v2.666
		c0.086-0.027,0.702-0.243,1.849-0.645c0.659-0.286,1.391-0.458,2.193-0.516c-0.086,0.773-0.516,1.569-1.29,2.386
		c-0.774,0.817-1.548,1.226-2.322,1.226c-0.401,0-0.824-0.186-1.269-0.559c-0.444-0.372-0.752-0.781-0.924-1.226
		c-0.173-0.444-0.259-1.483-0.259-3.117v-1.592c0-0.43-0.144-0.559-0.43-0.387c-0.487,0.287-1.827,1.577-4.021,3.87
		c-2.193,2.294-3.691,3.44-4.493,3.44c-0.23,0-0.502-0.157-0.817-0.474c-0.315-0.314-0.494-0.587-0.537-0.816
		s-0.064-0.76-0.064-1.592c0-1.462,0.816-3.97,2.451-7.524l1.419-3.01c0.086-0.2,0.286-0.487,0.602-0.86H103.556z"/>
	<path fill="#3C3C3B" d="M131.248,29.68l0.473-1.462c0.144-0.114,0.408-0.737,0.796-1.87c0.387-1.133,0.752-2.071,1.097-2.816
		c1.031-2.294,1.748-3.999,2.149-5.117c0.172-0.258,0.358-0.56,0.56-0.903c0.4-0.745,0.673-1.146,0.816-1.204
		c0.229-0.057,0.522-0.014,0.882,0.129c0.358,0.144,0.63,0.359,0.816,0.646s0.237,0.559,0.151,0.816
		c-0.087,0.259-0.652,1.491-1.699,3.698c-1.047,2.208-1.842,4.014-2.386,5.418c-0.545,1.405-1.032,2.738-1.463,3.999
		c-0.43,1.262-0.717,2.079-0.859,2.451l-0.215,0.946l1.074-1.032c0.345-0.258,0.889-0.717,1.635-1.376
		c0.745-0.659,1.21-1.046,1.397-1.161c0.186-0.114,0.608-0.315,1.269-0.602c1.117-0.487,2.207-0.731,3.268-0.731
		s1.949,0.602,2.666,1.806c0.688,1.29,0.587,2.681-0.301,4.171c-0.431,0.316-0.66,0.646-0.688,0.989s-0.76,1.305-2.192,2.881
		c-0.746,0.774-1.728,1.548-2.946,2.322s-2.057,1.24-2.515,1.397c-0.459,0.158-0.832,0.266-1.118,0.322
		c-0.717,0.086-1.176,0.158-1.376,0.215c-0.574-0.057-0.925-0.129-1.054-0.215s-0.279-0.314-0.451-0.688
		c-0.345-0.372-0.488-0.702-0.431-0.989c0.345,0,0.545-0.057,0.603-0.172c0-0.172,0.271-0.229,0.816-0.172s1.549-0.344,3.011-1.204
		s2.924-1.963,4.386-3.312c1.061-1.376,1.727-2.379,1.999-3.01c0.272-0.63,0.308-1.161,0.107-1.591
		c-0.058-0.286-0.479-0.387-1.269-0.301c-0.788,0.086-1.584,0.401-2.386,0.945c-3.097,1.921-5.175,4.071-6.235,6.45l-0.215,0.431
		c0,0.114-0.165,0.258-0.494,0.43c-0.33,0.172-0.609,0.258-0.839,0.258c-0.459-0.2-0.731-0.516-0.817-0.946
		c-0.401-0.286-0.602-0.537-0.602-0.752s0.2-1.039,0.602-2.473c0.229-1.089,0.523-2.222,0.882-3.397
		c0.358-1.175,0.608-1.819,0.753-1.935C131.133,30.568,131.248,30.139,131.248,29.68z"/>
	<path fill="#3C3C3B" d="M146.297,32.948l0.731-0.087c0.4,0,0.602,0.087,0.602,0.259c0.2,0.372,0.516,0.272,0.946-0.302
		c0.143-0.2,0.286-0.443,0.43-0.73c0.401-0.63,0.996-1.297,1.784-2c0.788-0.702,1.44-1.196,1.957-1.483
		c0.888-0.4,1.705-0.565,2.451-0.494c0.745,0.072,1.505,0.523,2.278,1.354c0.487,0.373,0.753,0.946,0.796,1.72
		c0.043,0.774-0.094,1.448-0.408,2.021c-0.115,0.43-0.566,0.975-1.354,1.634c-0.789,0.66-1.513,1.118-2.172,1.376
		c-0.602,0.144-1.362,0.236-2.279,0.279s-1.52-0.007-1.806-0.15c-0.201-0.114-0.358,0.064-0.473,0.537
		c-0.115,0.474-0.209,1.133-0.28,1.979s-0.05,1.361,0.065,1.548c0.113,0.187,0.229,0.322,0.344,0.408
		c1.003,1.032,2.063,1.09,3.182,0.173c0.344-0.315,0.724-0.688,1.14-1.118c0.415-0.431,0.724-0.731,0.925-0.903
		c0.229-0.401,0.716-0.501,1.462-0.301c0.286,0.258,0.423,0.502,0.408,0.73c-0.015,0.23-0.129,0.56-0.344,0.989
		s-0.603,0.896-1.161,1.397c-0.559,0.502-1.054,0.896-1.483,1.183c-1.52,0.803-3.039,0.918-4.559,0.344
		c-1.117-0.458-1.842-1.097-2.171-1.913c-0.33-0.817-0.424-1.871-0.279-3.161c0.143-1.29,0.2-2.092,0.172-2.407
		c-0.029-0.315-0.122-0.545-0.279-0.688c-0.158-0.143-0.309-0.286-0.452-0.43c-0.315-0.315-0.487-0.565-0.516-0.753
		c-0.029-0.186-0.008-0.4,0.064-0.645C146.089,33.07,146.182,32.948,146.297,32.948z M155.757,30.626
		c-0.43-0.487-1.075-0.415-1.935,0.215c-0.287,0.086-0.71,0.401-1.269,0.946c-0.56,0.545-1.04,1.082-1.44,1.612
		c-0.402,0.53-0.531,0.838-0.388,0.925c-0.028,0.058,0.007,0.101,0.107,0.129s0.229,0.05,0.388,0.064
		c0.157,0.015,0.308,0.028,0.451,0.043s0.279,0.015,0.408,0s0.416-0.058,0.86-0.129s0.724-0.129,0.839-0.173
		c0.114-0.043,0.314-0.15,0.602-0.322c0.344-0.2,0.846-0.773,1.505-1.72C156.086,31.442,156.043,30.913,155.757,30.626z"/>
	<path fill="#3C3C3B" d="M164.314,29.121l0.215-1.29c0-0.258,0.144-0.53,0.431-0.817c0.4-0.229,0.888-0.1,1.462,0.387
		c0.43,0.431,0.645,0.768,0.645,1.011c0,0.244-0.215,0.896-0.645,1.957c-0.976,2.121-1.678,4.229-2.107,6.32
		c-0.115,0.115-0.172,0.258-0.172,0.431c0,0.172-0.043,0.43-0.129,0.773s-0.15,0.703-0.193,1.075
		c-0.043,0.373,0.043,0.623,0.258,0.753c0.215,0.129,0.451,0.107,0.709-0.064c0.028-0.058,0.13-0.157,0.302-0.302
		c0.486-0.458,0.831-0.859,1.031-1.204c0.114-0.344,0.28-0.608,0.495-0.795s0.322-0.365,0.322-0.538c0-0.172,0.43-0.859,1.29-2.063
		c0.917-1.634,1.526-2.651,1.827-3.053c0.302-0.401,0.495-0.695,0.581-0.882s0.143-0.315,0.172-0.387
		c0.028-0.071,0.043-0.122,0.043-0.15c0.086-0.144,0.15-0.223,0.193-0.237c0.043-0.014,0.086-0.035,0.129-0.064
		c0.043-0.028,0.107-0.043,0.193-0.043h0.215c0.431,0,0.695,0.058,0.796,0.172c0.101,0.115,0.179,0.273,0.236,0.474
		c0.286,0.287,0.431,0.702,0.431,1.247l-0.216,0.645c0,0.488-0.2,1.161-0.602,2.021c-0.373,1.462-0.609,3.01-0.71,4.644
		s-0.05,2.509,0.151,2.623c0.2,0.115,0.529-0.114,0.988-0.688s0.882-1.154,1.269-1.742c0.388-0.587,0.724-1.038,1.011-1.354
		c0.63-0.745,1.075-1.376,1.333-1.892c0-0.114,0.165-0.53,0.494-1.247c0.329-0.716,0.495-1.153,0.495-1.312
		c0-0.157,0.071-0.337,0.215-0.537c0.458-0.745,0.845-1.477,1.161-2.193c0.2-0.803,0.608-1.297,1.226-1.483
		c0.616-0.187,0.938-0.021,0.967,0.494c0.028,0.086,0.028,0.187,0,0.301c-0.229,1.376-0.795,3.082-1.698,5.117
		c-0.903,2.036-1.87,3.856-2.902,5.461c-0.229,0.172-0.43,0.402-0.603,0.688c-0.172,0.287-0.258,0.48-0.258,0.58
		c0,0.101-0.258,0.359-0.773,0.774c-0.517,0.416-1.032,0.795-1.548,1.14c-0.66,0.544-1.392,0.616-2.193,0.215
		c-0.631-0.344-1.068-0.874-1.312-1.591c-0.244-0.717-0.365-1.82-0.365-3.312v-2.063c-0.431,0.545-0.918,1.232-1.462,2.063
		c-0.603,1.118-1.233,2.071-1.893,2.859c-0.659,0.789-1.154,1.24-1.483,1.354c-0.33,0.115-0.846,0.051-1.548-0.193
		c-0.703-0.243-1.111-0.516-1.226-0.816c-0.115-0.302-0.122-1.189-0.021-2.666s0.265-2.43,0.494-2.86l0.086-0.43
		c0-0.057-0.028-0.114-0.086-0.172C163.268,32.188,164.027,29.809,164.314,29.121z"/>
	<path fill="#3C3C3B" d="M190.136,40.666c0.071-0.043,0.114-0.064,0.129-0.064c0.014,0,0.043-0.014,0.086-0.043
		c0.043-0.028,0.064-0.057,0.064-0.086c0.2-0.172,0.451-0.408,0.753-0.709c0.301-0.302,0.522-0.452,0.666-0.452
		s0.294,0.072,0.451,0.215c0.157,0.145,0.265,0.23,0.323,0.259c0.458,0,0.394,0.372-0.194,1.117
		c-0.588,0.746-1.312,1.392-2.171,1.936c-0.918,0.803-2,1.097-3.247,0.882c-1.247-0.216-2.243-0.839-2.988-1.871
		c-0.889-1.118-1.219-2.909-0.989-5.375c0.114-1.604,0.803-3.246,2.064-4.924c1.261-1.677,2.594-2.787,3.999-3.332
		c0.401-0.258,0.774-0.394,1.118-0.408s0.924,0.036,1.741,0.15s1.455,0.459,1.914,1.032c0.716,0.717,1.074,1.548,1.074,2.493
		c-0.114,0.688-0.559,1.478-1.333,2.365c-0.773,0.889-1.706,1.606-2.795,2.15c-1.605,0.487-2.909,0.387-3.913-0.301
		c-0.516-0.2-0.867-0.157-1.053,0.129c-0.188,0.286-0.352,1.004-0.495,2.149c-0.229,1.979,0.243,3.068,1.419,3.269
		c0.114,0.028,0.286,0.064,0.517,0.107c0.229,0.043,0.379,0.071,0.451,0.086c0.071,0.015,0.193,0.028,0.365,0.043
		s0.315,0.007,0.431-0.021c0.229-0.058,0.451-0.15,0.666-0.279s0.38-0.222,0.494-0.28C189.913,40.788,190.063,40.709,190.136,40.666
		z M190.2,33.722c0.487-0.2,0.981-0.559,1.483-1.075c0.501-0.516,0.752-0.967,0.752-1.354c0-0.387-0.2-0.702-0.602-0.945
		s-0.875-0.294-1.419-0.151c-0.545,0.145-1.104,0.474-1.677,0.989c-0.574,0.517-1.047,1.025-1.419,1.526
		c-0.373,0.502-0.517,0.796-0.431,0.882c0.114,0.229,0.573,0.358,1.376,0.387C189.067,34.009,189.712,33.923,190.2,33.722z"/>
	<path fill="#3C3C3B" d="M208.99,35.012l-0.816,0.172c-0.258,0-0.431,0.258-0.517,0.774c-0.086,0.516-0.193,0.932-0.322,1.247
		s-0.193,0.502-0.193,0.559c0,0.058-0.086,0.244-0.258,0.56s-0.258,0.674-0.258,1.074c-0.345,0.946-0.517,1.505-0.517,1.678
		c-0.114,0.602-0.229,1.031-0.344,1.29c-0.201,0.544-0.344,1.289-0.43,2.235c-1.062,4.529-2.193,7.182-3.397,7.955
		c-0.86,0.344-1.771,0.365-2.73,0.064c-0.961-0.301-1.827-0.824-2.602-1.569c-0.315-0.287-0.616-0.796-0.903-1.526
		c-0.286-0.731-0.351-1.147-0.193-1.247c0.157-0.101,0.423-0.101,0.796,0c0.372,0.1,0.559,0.222,0.559,0.365
		c0.831,0.717,1.462,1.118,1.893,1.204c0.917,0.315,1.619,0.301,2.106-0.043c0.831-0.746,1.505-2.208,2.021-4.386
		c0.745-3.354,1.247-5.433,1.505-6.235c0.229-1.032,0.243-1.519,0.043-1.462c-0.086,0.029-0.187,0.115-0.301,0.258
		c-0.258,0.086-0.746,0.309-1.462,0.667c-0.717,0.358-1.219,0.566-1.505,0.623l-0.946,0.043c-0.229,0.144-0.639,0.122-1.226-0.064
		c-0.588-0.186-1.111-0.466-1.569-0.838c-0.402-0.517-0.639-0.875-0.71-1.075s-0.114-0.588-0.129-1.161s0.215-1.297,0.688-2.172
		c0.473-0.874,1.053-1.698,1.741-2.473c0.888-0.888,2.049-1.72,3.483-2.493c1.433-0.774,2.564-1.146,3.396-1.118
		c1.204,0.172,2.035,0.559,2.494,1.161c0.831,1.117,1.247,2.437,1.247,3.956C209.636,33.923,209.421,34.582,208.99,35.012z
		 M206.669,31.787c0.143-0.431,0.186-0.738,0.129-0.925c-0.058-0.187-0.244-0.294-0.56-0.322c-0.975-0.2-2.351,0.258-4.128,1.376
		c-0.229,0.344-0.659,0.717-1.29,1.118c-0.058,0.2-0.172,0.344-0.344,0.43c-0.459,0.373-0.875,1.004-1.247,1.892
		c-0.373,0.89-0.459,1.419-0.258,1.591c1.462,0.545,3.153,0.059,5.074-1.462C205.393,34.481,206.267,33.249,206.669,31.787z"/>
	<path fill="#3C3C3B" d="M213.313,28.647c-0.129-0.172-0.193-0.351-0.193-0.537s0.122-0.444,0.365-0.774
		c0.243-0.329,0.459-0.486,0.646-0.473c0.186,0.015,0.616,0.015,1.29,0c0.673-0.014,1.125-0.064,1.354-0.15
		c0.229-0.086,0.387-0.243,0.473-0.473c0.258-0.717,0.616-1.49,1.075-2.322c0.86-1.662,1.548-2.709,2.064-3.14
		c0.516-0.43,1.132-0.344,1.849,0.259c0.229,0.344,0.351,0.566,0.365,0.666c0.015,0.101-0.079,0.352-0.279,0.753
		c-0.201,0.401-0.494,0.924-0.882,1.569c-0.387,0.645-0.652,1.111-0.795,1.397c-0.488,0.688-0.56,1.061-0.215,1.118
		c0.344,0.058,1.196-0.021,2.558-0.236c1.361-0.216,2.114,0.179,2.258,1.182c0.086,0.688,0.015,1.104-0.215,1.247
		c-0.229,0.145-0.889,0.216-1.979,0.216c-0.917,0.144-1.784,0.222-2.601,0.236c-0.817,0.015-1.312,0.05-1.484,0.107
		c-0.344,0.086-0.616,0.358-0.816,0.816c-0.086,0.059-0.187,0.216-0.301,0.474c-0.173,0.344-0.531,1.018-1.075,2.021
		c-0.774,2.294-1.283,4.222-1.526,5.784c-0.244,1.563-0.295,2.479-0.15,2.752c0.143,0.272,0.645,0.451,1.505,0.537
		c1.462,0.172,3.038-0.243,4.729-1.247l1.161-0.688c0.286-0.459,0.587-0.315,0.903,0.43c0,0.315-0.021,0.559-0.064,0.73
		c-0.043,0.173-0.201,0.416-0.474,0.731s-0.695,0.631-1.269,0.946c-2.179,1.376-4.271,1.863-6.277,1.462
		c-0.459-0.086-0.925-0.394-1.397-0.925c-0.474-0.53-0.781-1.024-0.925-1.483l-0.215-0.344c-0.172-0.144-0.229-0.882-0.172-2.215
		c0.057-1.333,0.157-2.279,0.301-2.838c0.143-0.559,0.401-1.34,0.774-2.344c0.372-1.003,0.602-1.662,0.688-1.978l1.161-2.494
		l-1.72-0.473C213.606,28.921,213.441,28.819,213.313,28.647z"/>
	<path fill="#3C3C3B" d="M226.75,38.753c0.516-0.315,0.896-0.487,1.139-0.517c0.244-0.027,0.624,0.072,1.14,0.302
		c0.86,0.545,1.24,1.146,1.14,1.806c-0.101,0.66-0.681,1.247-1.741,1.763c-0.975,0.402-1.821,0.33-2.537-0.215
		C224.857,40.889,225.144,39.843,226.75,38.753z"/>
	<path fill="#3C3C3B" d="M248.55,29.68l0.473-1.462c0.144-0.114,0.408-0.737,0.796-1.87c0.387-1.133,0.752-2.071,1.097-2.816
		c1.031-2.294,1.748-3.999,2.149-5.117c0.172-0.258,0.358-0.56,0.56-0.903c0.4-0.745,0.673-1.146,0.816-1.204
		c0.229-0.057,0.522-0.014,0.882,0.129c0.358,0.144,0.63,0.359,0.816,0.646s0.237,0.559,0.151,0.816
		c-0.087,0.259-0.652,1.491-1.699,3.698c-1.047,2.208-1.842,4.014-2.386,5.418c-0.545,1.405-1.032,2.738-1.463,3.999
		c-0.43,1.262-0.717,2.079-0.859,2.451l-0.215,0.946l1.074-1.032c0.345-0.258,0.889-0.717,1.635-1.376
		c0.745-0.659,1.21-1.046,1.397-1.161c0.186-0.114,0.608-0.315,1.269-0.602c1.117-0.487,2.207-0.731,3.268-0.731
		s1.949,0.602,2.666,1.806c0.688,1.29,0.587,2.681-0.301,4.171c-0.431,0.316-0.66,0.646-0.688,0.989s-0.76,1.305-2.192,2.881
		c-0.746,0.774-1.728,1.548-2.946,2.322s-2.057,1.24-2.515,1.397c-0.459,0.158-0.832,0.266-1.118,0.322
		c-0.717,0.086-1.176,0.158-1.376,0.215c-0.574-0.057-0.925-0.129-1.054-0.215s-0.279-0.314-0.451-0.688
		c-0.345-0.372-0.488-0.702-0.431-0.989c0.345,0,0.545-0.057,0.603-0.172c0-0.172,0.271-0.229,0.816-0.172s1.549-0.344,3.011-1.204
		s2.924-1.963,4.386-3.312c1.061-1.376,1.727-2.379,1.999-3.01c0.272-0.63,0.308-1.161,0.107-1.591
		c-0.058-0.286-0.479-0.387-1.269-0.301c-0.788,0.086-1.584,0.401-2.386,0.945c-3.097,1.921-5.175,4.071-6.235,6.45l-0.215,0.431
		c0,0.114-0.165,0.258-0.494,0.43c-0.33,0.172-0.609,0.258-0.839,0.258c-0.459-0.2-0.731-0.516-0.817-0.946
		c-0.401-0.286-0.602-0.537-0.602-0.752s0.2-1.039,0.602-2.473c0.229-1.089,0.523-2.222,0.882-3.397
		c0.358-1.175,0.608-1.819,0.753-1.935C248.435,30.568,248.55,30.139,248.55,29.68z"/>
	<path fill="#3C3C3B" d="M271.232,40.666c0.071-0.043,0.114-0.064,0.129-0.064c0.014,0,0.043-0.014,0.086-0.043
		c0.043-0.028,0.064-0.057,0.064-0.086c0.2-0.172,0.451-0.408,0.753-0.709c0.301-0.302,0.522-0.452,0.666-0.452
		s0.294,0.072,0.451,0.215c0.157,0.145,0.265,0.23,0.323,0.259c0.458,0,0.394,0.372-0.194,1.117
		c-0.588,0.746-1.312,1.392-2.171,1.936c-0.918,0.803-2,1.097-3.247,0.882c-1.247-0.216-2.243-0.839-2.988-1.871
		c-0.889-1.118-1.219-2.909-0.989-5.375c0.114-1.604,0.803-3.246,2.064-4.924c1.261-1.677,2.594-2.787,3.999-3.332
		c0.401-0.258,0.774-0.394,1.118-0.408s0.924,0.036,1.741,0.15s1.455,0.459,1.914,1.032c0.716,0.717,1.074,1.548,1.074,2.493
		c-0.114,0.688-0.559,1.478-1.333,2.365c-0.773,0.889-1.706,1.606-2.795,2.15c-1.605,0.487-2.909,0.387-3.913-0.301
		c-0.516-0.2-0.867-0.157-1.053,0.129c-0.188,0.286-0.352,1.004-0.495,2.149c-0.229,1.979,0.243,3.068,1.419,3.269
		c0.114,0.028,0.286,0.064,0.517,0.107c0.229,0.043,0.379,0.071,0.451,0.086c0.071,0.015,0.193,0.028,0.365,0.043
		s0.315,0.007,0.431-0.021c0.229-0.058,0.451-0.15,0.666-0.279s0.38-0.222,0.494-0.28C271.01,40.788,271.16,40.709,271.232,40.666z
		 M271.297,33.722c0.487-0.2,0.981-0.559,1.483-1.075c0.501-0.516,0.752-0.967,0.752-1.354c0-0.387-0.2-0.702-0.602-0.945
		s-0.875-0.294-1.419-0.151c-0.545,0.145-1.104,0.474-1.677,0.989c-0.574,0.517-1.047,1.025-1.419,1.526
		c-0.373,0.502-0.517,0.796-0.431,0.882c0.114,0.229,0.573,0.358,1.376,0.387C270.164,34.009,270.809,33.923,271.297,33.722z"/>
	<path fill="#3C3C3B" d="M290.433,34.797c-0.23-0.028-0.51,0.072-0.839,0.301c-0.33,0.229-0.494,0.451-0.494,0.667
		c0,0.215-0.23,0.58-0.688,1.096c-0.028,0.201-0.258,1.276-0.688,3.226c-0.431,1.949-0.738,3.318-0.925,4.106
		s-0.467,1.655-0.839,2.602c-0.2,1.261-0.645,2.336-1.333,3.225c-0.401,0.688-0.91,1.247-1.526,1.677
		c-0.616,0.431-1.226,0.681-1.827,0.753c-0.603,0.071-1.505-0.165-2.709-0.709c-0.574-0.431-1.111-1.068-1.612-1.914
		c-0.502-0.846-0.725-1.47-0.667-1.87c0.058-0.287,0.301-0.323,0.731-0.107c0.43,0.215,0.759,0.479,0.988,0.795
		s0.631,0.659,1.204,1.032c0.573,0.372,1.018,0.53,1.333,0.473c1.176-0.172,2.193-1.262,3.054-3.268
		c0.486-1.376,0.967-3.11,1.44-5.203c0.473-2.092,0.651-3.196,0.537-3.311c-1.405,0.745-2.337,1.246-2.795,1.505
		c-1.778,0.573-3.168,0.688-4.171,0.344c-0.316-0.144-0.624-0.516-0.925-1.118c-0.301-0.602-0.43-1.11-0.387-1.526
		c0.043-0.415,0.437-1.254,1.183-2.516c0.745-1.261,1.183-1.885,1.312-1.87s0.193-0.122,0.193-0.409
		c0.057-0.258,0.845-0.988,2.365-2.192c2.063-1.834,3.712-2.81,4.944-2.924l0.86,0.043c0.258,0.172,0.602,0.344,1.032,0.516
		c0.602,0.258,1.132,0.774,1.591,1.548c0.458,0.774,0.716,1.548,0.773,2.322c-0.058,0.631-0.2,1.247-0.43,1.849
		C290.891,34.539,290.661,34.825,290.433,34.797z M286.756,30.368c-0.101,0-0.208,0.015-0.322,0.043
		c-0.115,0.028-0.23,0.064-0.345,0.107s-0.243,0.122-0.387,0.236c-0.144,0.115-0.272,0.215-0.387,0.301
		c-0.115,0.086-0.258,0.208-0.43,0.365c-0.173,0.158-0.323,0.295-0.452,0.409s-0.294,0.272-0.494,0.473
		c-0.201,0.201-0.373,0.358-0.517,0.473c-2.724,2.466-3.971,4.2-3.74,5.203c0.057,0.287,0.443,0.381,1.161,0.279
		c0.716-0.1,1.311-0.271,1.784-0.516c0.473-0.243,0.888-0.444,1.247-0.602c0.357-0.157,0.638-0.28,0.838-0.366
		c0.573-0.258,0.961-0.572,1.161-0.945c0.2-0.372,0.401-0.903,0.603-1.592c0.2-0.688,0.43-1.053,0.688-1.096s0.573,0.007,0.946,0.15
		c0.315-0.172,0.444-0.474,0.387-0.903c-0.114-0.831-0.602-1.476-1.462-1.935C286.949,30.396,286.855,30.368,286.756,30.368z"/>
	<path fill="#3C3C3B" d="M296.194,35.614c-0.688,1.834-1.032,3.196-1.032,4.085s0.121,1.526,0.365,1.913
		c0.243,0.387,0.702,0.58,1.376,0.58c0.673,0,1.226-0.078,1.655-0.236c0.431-0.157,1.047-0.537,1.85-1.14l1.462-0.859
		c0.114,0,0.229-0.071,0.344-0.215c0.258-0.114,0.559-0.071,0.903,0.129c0.344,0.2,0.516,0.459,0.516,0.773
		c-0.058,0.23-0.315,0.603-0.773,1.118c-0.459,0.516-0.804,0.789-1.032,0.817c-0.402,0.2-0.617,0.315-0.646,0.344h0.043
		c-0.258,0.344-0.516,0.516-0.773,0.516h-0.345c-0.114,0.23-0.494,0.459-1.139,0.688c-0.646,0.229-1.255,0.344-1.828,0.344
		c-1.262,0-2.3-0.479-3.117-1.44c-0.817-0.96-1.197-2.156-1.14-3.591c0.086-2.121,0.788-4.386,2.107-6.794
		c1.834-3.411,3.87-5.117,6.105-5.117c0.544,0,1.161,0.158,1.85,0.474c0.888,0.373,1.49,1.061,1.806,2.063
		c0.114,0.832,0.086,1.563-0.086,2.193c-0.688,2.093-1.864,3.612-3.526,4.558c-0.459,0.287-1.032,0.431-1.72,0.431
		c-1.348,0-2.322-0.431-2.924-1.29L296.194,35.614z M298,33.636c0,0.401,0.1,0.731,0.301,0.989c0.2,0.258,0.458,0.387,0.774,0.387
		c0.859,0,1.604-0.43,2.235-1.29s1.011-1.677,1.14-2.451c0.129-0.773,0.036-1.275-0.279-1.505c-0.688-0.344-1.663,0.043-2.924,1.161
		c-0.774,0.717-1.348,1.348-1.72,1.892l-0.56,0.903c0.229-0.086,0.458-0.136,0.688-0.15C297.885,33.558,298,33.579,298,33.636z"/>
	<path fill="#3C3C3B" d="M307.158,42.021l-0.215-0.859c-0.201-0.114-0.315-0.237-0.344-0.366c-0.029-0.129,0.014-0.351,0.129-0.666
		c0.372-0.659,1.032-2.157,1.978-4.493c0.946-2.337,1.477-3.72,1.592-4.15c0-0.286,0.143-0.572,0.43-0.859
		c0.487-0.372,0.946-0.129,1.376,0.73c0.2,0.373,0.301,0.746,0.301,1.118c0,0.373-0.315,1.376-0.945,3.01
		c-0.718,1.749-1.413,3.297-2.086,4.645c-0.674,1.348-1.111,2.036-1.312,2.063c-0.058,0.029-0.144,0.043-0.258,0.043L307.158,42.021
		z M312.662,21.381c0.401,0,0.745,0.072,1.032,0.215c0.2,0.459,0.565,1.004,1.097,1.634c0.53,0.631,0.796,1.062,0.796,1.29
		c0,0.66-0.064,1.062-0.194,1.204c-0.129,0.144-0.509,0.215-1.139,0.215c-0.631,0-1.226-0.293-1.785-0.881
		c-0.559-0.588-0.838-1.197-0.838-1.828c0-0.143,0.172-0.473,0.516-0.988C312.49,21.725,312.662,21.438,312.662,21.381z"/>
	<path fill="#3C3C3B" d="M325.477,27.529c0.544,0.201,0.874,0.302,0.989,0.302c0.544,0.086,1.024,0.416,1.44,0.988
		c0.415,0.574,0.595,1.133,0.537,1.678s-0.223,1.025-0.494,1.44c-0.273,0.416-0.596,0.652-0.968,0.709c0.172,0,0-0.129-0.516-0.387
		l-0.129,0.086c0-0.114-0.051-0.265-0.15-0.451c-0.102-0.187-0.123-0.517-0.065-0.989s0.065-0.737,0.021-0.796
		c-0.043-0.057-0.251-0.114-0.623-0.172c-0.373-0.057-0.939,0.036-1.698,0.279c-0.76,0.244-1.513,0.624-2.258,1.14
		c-1.491,0.976-2.479,2.007-2.967,3.097c-0.344,0.487-0.517,0.846-0.517,1.074c0,0.545,0.889,1.212,2.666,2
		c1.777,0.789,2.823,1.599,3.14,2.43c0.114,0.344,0.1,0.588-0.043,0.73c0.028,0.029,0.057,0.058,0.086,0.086
		c0.314,0.517,0.179,1.04-0.408,1.57c-0.588,0.53-1.398,0.896-2.43,1.096c-0.688,0.201-1.391,0.302-2.107,0.302
		c-1.434,0-2.479-0.517-3.139-1.549c-0.373-0.486-0.452-0.909-0.236-1.269c0.215-0.357,0.479-0.336,0.795,0.065
		c0.401,0.229,0.989,0.344,1.764,0.344c0.773,0,1.548-0.144,2.321-0.431c0.917-0.4,1.176-0.716,0.774-0.945
		c-1.09-0.286-2.187-0.839-3.29-1.655c-1.104-0.817-1.713-1.556-1.827-2.215c-0.459-1.748,0.086-3.483,1.634-5.203
		c0.86-0.544,1.419-0.846,1.677-0.903v0.043c0.745-0.773,2.251-1.548,4.516-2.321C324.831,27.588,325.333,27.529,325.477,27.529z"/>
	<path fill="#3C3C3B" d="M331.087,28.647c-0.129-0.172-0.193-0.351-0.193-0.537s0.122-0.444,0.365-0.774
		c0.243-0.329,0.459-0.486,0.646-0.473c0.186,0.015,0.616,0.015,1.29,0c0.673-0.014,1.125-0.064,1.354-0.15
		c0.229-0.086,0.387-0.243,0.473-0.473c0.258-0.717,0.616-1.49,1.075-2.322c0.86-1.662,1.548-2.709,2.064-3.14
		c0.516-0.43,1.132-0.344,1.849,0.259c0.229,0.344,0.351,0.566,0.365,0.666c0.015,0.101-0.079,0.352-0.279,0.753
		c-0.201,0.401-0.494,0.924-0.882,1.569c-0.387,0.645-0.652,1.111-0.795,1.397c-0.488,0.688-0.56,1.061-0.215,1.118
		c0.344,0.058,1.196-0.021,2.558-0.236c1.361-0.216,2.114,0.179,2.258,1.182c0.086,0.688,0.015,1.104-0.215,1.247
		c-0.229,0.145-0.889,0.216-1.979,0.216c-0.917,0.144-1.784,0.222-2.601,0.236c-0.817,0.015-1.312,0.05-1.484,0.107
		c-0.344,0.086-0.616,0.358-0.816,0.816c-0.086,0.059-0.187,0.216-0.301,0.474c-0.173,0.344-0.531,1.018-1.075,2.021
		c-0.774,2.294-1.283,4.222-1.526,5.784c-0.244,1.563-0.295,2.479-0.15,2.752c0.143,0.272,0.645,0.451,1.505,0.537
		c1.462,0.172,3.038-0.243,4.729-1.247l1.161-0.688c0.286-0.459,0.587-0.315,0.903,0.43c0,0.315-0.021,0.559-0.064,0.73
		c-0.043,0.173-0.201,0.416-0.474,0.731s-0.695,0.631-1.269,0.946c-2.179,1.376-4.271,1.863-6.277,1.462
		c-0.459-0.086-0.925-0.394-1.397-0.925c-0.474-0.53-0.781-1.024-0.925-1.483l-0.215-0.344c-0.172-0.144-0.229-0.882-0.172-2.215
		c0.057-1.333,0.157-2.279,0.301-2.838c0.143-0.559,0.401-1.34,0.774-2.344c0.372-1.003,0.602-1.662,0.688-1.978l1.161-2.494
		l-1.72-0.473C331.381,28.921,331.216,28.819,331.087,28.647z"/>
	<path fill="#3C3C3B" d="M351.383,40.666c0.071-0.043,0.114-0.064,0.129-0.064c0.014,0,0.043-0.014,0.086-0.043
		c0.043-0.028,0.064-0.057,0.064-0.086c0.2-0.172,0.451-0.408,0.753-0.709c0.301-0.302,0.522-0.452,0.666-0.452
		s0.294,0.072,0.451,0.215c0.157,0.145,0.265,0.23,0.323,0.259c0.458,0,0.394,0.372-0.194,1.117
		c-0.588,0.746-1.312,1.392-2.171,1.936c-0.918,0.803-2,1.097-3.247,0.882c-1.247-0.216-2.243-0.839-2.988-1.871
		c-0.889-1.118-1.219-2.909-0.989-5.375c0.114-1.604,0.803-3.246,2.064-4.924c1.261-1.677,2.594-2.787,3.999-3.332
		c0.401-0.258,0.774-0.394,1.118-0.408s0.924,0.036,1.741,0.15s1.455,0.459,1.914,1.032c0.716,0.717,1.074,1.548,1.074,2.493
		c-0.114,0.688-0.559,1.478-1.333,2.365c-0.773,0.889-1.706,1.606-2.795,2.15c-1.605,0.487-2.909,0.387-3.913-0.301
		c-0.516-0.2-0.867-0.157-1.053,0.129c-0.188,0.286-0.352,1.004-0.495,2.149c-0.229,1.979,0.243,3.068,1.419,3.269
		c0.114,0.028,0.286,0.064,0.517,0.107c0.229,0.043,0.379,0.071,0.451,0.086c0.071,0.015,0.193,0.028,0.365,0.043
		s0.315,0.007,0.431-0.021c0.229-0.058,0.451-0.15,0.666-0.279s0.38-0.222,0.494-0.28C351.16,40.788,351.311,40.709,351.383,40.666z
		 M351.447,33.722c0.487-0.2,0.981-0.559,1.483-1.075c0.501-0.516,0.752-0.967,0.752-1.354c0-0.387-0.2-0.702-0.602-0.945
		s-0.875-0.294-1.419-0.151c-0.545,0.145-1.104,0.474-1.677,0.989c-0.574,0.517-1.047,1.025-1.419,1.526
		c-0.373,0.502-0.517,0.796-0.431,0.882c0.114,0.229,0.573,0.358,1.376,0.387C350.314,34.009,350.959,33.923,351.447,33.722z"/>
	<path fill="#3C3C3B" d="M366.541,30.239c1.376-0.975,2.414-1.463,3.117-1.463c0.702,0,1.196,0.273,1.483,0.817
		c0.516,0.918,0.487,1.734-0.086,2.451c-0.258,0.315-0.588,0.559-0.989,0.73c-0.401,0.173-0.688,0.259-0.859,0.259
		c-0.173,0-0.388-0.13-0.646-0.388s-0.401-0.473-0.43-0.645c0-0.144-0.402,0.107-1.204,0.752c-0.803,0.646-1.333,1.097-1.591,1.354
		c-0.66,0.804-1.821,2.867-3.483,6.192c-0.172,0.344-0.344,0.76-0.516,1.247c-0.316,0.889-0.56,1.361-0.731,1.419
		s-0.444,0.029-0.816-0.086c-1.462-0.458-1.521-1.662-0.173-3.612c0.201-0.401,0.588-1.44,1.161-3.117s0.903-2.615,0.989-2.816
		c0.058-0.487,0.028-0.831-0.086-1.032c-0.144-0.258-0.373-0.387-0.688-0.387c-0.316,0-0.517-0.015-0.603-0.043
		c-0.229-0.028-0.344-0.329-0.344-0.903c0.057-0.544,0.387-1.003,0.989-1.376c1.031-0.544,1.849-0.559,2.45-0.043
		c0.373,0.258,0.56,1.204,0.56,2.838C365.537,31.128,366.369,30.411,366.541,30.239z"/>
	<path fill="#3C3C3B" d="M378.537,41.462l0.731-0.043c0.4-0.172,0.186,0.832-0.646,3.01c-0.144,0.229-0.294,0.479-0.451,0.753
		c-0.158,0.271-0.279,0.473-0.366,0.602c-0.086,0.129-0.172,0.251-0.258,0.365c-0.144,0.229-0.258,0.345-0.344,0.345
		c-0.946-0.145-1.584-0.495-1.913-1.054c-0.33-0.56-0.409-1.412-0.237-2.559c0.087-0.258,0.173-0.573,0.259-0.946
		c0.143-0.802,0.286-1.261,0.43-1.376c0.114-0.143,0.114-0.271,0-0.387c0-0.372,0.258-1.218,0.774-2.537
		c-0.173-0.229-0.102-0.479,0.215-0.753c0.314-0.271,0.422-0.479,0.322-0.623c-0.101-0.144-0.051-0.415,0.15-0.817
		c0.2-0.4,0.437-0.859,0.71-1.376c0.271-0.516,0.437-0.859,0.494-1.031c-0.029-0.086,0.208-0.674,0.709-1.764
		c0.502-1.089,0.824-1.763,0.968-2.021c0.229-0.114,0.136-0.208-0.279-0.279c-0.416-0.071-1.24-0.108-2.473-0.108
		s-2.122-0.157-2.666-0.473c-0.688-0.745-0.473-1.146,0.646-1.204l5.633-0.473l0.129-0.731c0.716-1.231,1.132-2.207,1.247-2.924
		c0.487-0.773,0.773-1.505,0.859-2.192c0.487-0.774,0.832-1.369,1.032-1.785c0.2-0.415,0.315-0.638,0.345-0.666
		c0.314-0.258,0.537-0.388,0.666-0.388s0.408,0.145,0.839,0.431c1.089,0.688,1.361,1.275,0.816,1.763
		c-0.114,0.229-0.287,0.688-0.516,1.376c-0.603,0.746-0.975,1.52-1.118,2.322c-0.602,1.262-0.975,1.892-1.118,1.892
		c0,0.287,0.215,0.431,0.646,0.431c0.945-0.058,1.562-0.114,1.849-0.173c0.286-0.057,0.473-0.1,0.559-0.129
		c0.259-0.028,0.517,0.015,0.774,0.129c0.229,0.345,0.365,0.695,0.408,1.054c0.043,0.359-0.079,0.624-0.365,0.796
		c-0.029,0-0.33,0.086-0.903,0.258c-0.458,0.115-1.763,0.272-3.913,0.473c-0.745,1.435-1.182,2.287-1.311,2.559
		c-0.13,0.273-0.194,0.438-0.194,0.495l-1.806,3.783c-0.115,0-0.172,0.086-0.172,0.259c0.114,0.344,0.1,0.573-0.043,0.688
		c-0.229,0.201-0.43,0.43-0.603,0.688c0.144,0.144,0.071,0.473-0.215,0.988c0,0.488-0.2,1.219-0.602,2.193
		c0.028,0.516,0.057,0.846,0.086,0.989C378.351,41.434,378.422,41.49,378.537,41.462z"/>
	<path fill="#3C3C3B" d="M388.212,38.753c0.516-0.315,0.896-0.487,1.139-0.517c0.244-0.027,0.624,0.072,1.14,0.302
		c0.86,0.545,1.24,1.146,1.14,1.806c-0.101,0.66-0.681,1.247-1.741,1.763c-0.975,0.402-1.821,0.33-2.537-0.215
		C386.319,40.889,386.605,39.843,388.212,38.753z"/>
	<path fill="#3C3C3B" d="M407.604,29.379c0.315-0.2,0.659-0.272,1.032-0.215c0.63,0.229,1.204,1.978,1.72,5.246
		c0.114,0.975,0.258,1.77,0.43,2.386c0.172,0.617,0.259,0.954,0.259,1.011c0.344,0.746,0.673,0.961,0.988,0.646
		c0.603-0.603,1.412-1.598,2.43-2.989c1.018-1.39,1.684-2.285,2-2.688c1.117-1.519,1.862-2.336,2.235-2.45
		c0.458-0.058,0.788-0.015,0.989,0.129c0.372,0.286,0.157,0.988-0.645,2.106c-0.173,0.23-0.352,0.538-0.538,0.925
		s-0.373,0.752-0.559,1.097c-0.188,0.344-0.703,1.09-1.548,2.235c-0.847,1.147-1.349,1.8-1.506,1.957
		c-0.157,0.158-0.351,0.337-0.58,0.537c-0.717,0.603-1.204,1.104-1.462,1.505c-0.688,0.66-1.233,1.062-1.634,1.204
		c-0.402,0.145-0.774,0.043-1.118-0.301c-0.316-0.229-0.71-1.189-1.183-2.881s-0.803-3.081-0.989-4.171
		c-0.187-1.089-0.451-2.15-0.795-3.183C406.844,30.454,407.002,29.752,407.604,29.379z"/>
	<path fill="#3C3C3B" d="M428.223,40.666c0.071-0.043,0.114-0.064,0.129-0.064c0.014,0,0.043-0.014,0.086-0.043
		c0.043-0.028,0.064-0.057,0.064-0.086c0.2-0.172,0.451-0.408,0.753-0.709c0.301-0.302,0.522-0.452,0.666-0.452
		s0.294,0.072,0.451,0.215c0.157,0.145,0.265,0.23,0.323,0.259c0.458,0,0.394,0.372-0.194,1.117
		c-0.588,0.746-1.312,1.392-2.171,1.936c-0.918,0.803-2,1.097-3.247,0.882c-1.247-0.216-2.243-0.839-2.988-1.871
		c-0.889-1.118-1.219-2.909-0.989-5.375c0.114-1.604,0.803-3.246,2.064-4.924c1.261-1.677,2.594-2.787,3.999-3.332
		c0.401-0.258,0.774-0.394,1.118-0.408s0.924,0.036,1.741,0.15s1.455,0.459,1.914,1.032c0.716,0.717,1.074,1.548,1.074,2.493
		c-0.114,0.688-0.559,1.478-1.333,2.365c-0.773,0.889-1.706,1.606-2.795,2.15c-1.605,0.487-2.909,0.387-3.913-0.301
		c-0.516-0.2-0.867-0.157-1.053,0.129c-0.188,0.286-0.352,1.004-0.495,2.149c-0.229,1.979,0.243,3.068,1.419,3.269
		c0.114,0.028,0.286,0.064,0.517,0.107c0.229,0.043,0.379,0.071,0.451,0.086c0.071,0.015,0.193,0.028,0.365,0.043
		s0.315,0.007,0.431-0.021c0.229-0.058,0.451-0.15,0.666-0.279s0.38-0.222,0.494-0.28C428,40.788,428.15,40.709,428.223,40.666z
		 M428.287,33.722c0.487-0.2,0.981-0.559,1.483-1.075c0.501-0.516,0.752-0.967,0.752-1.354c0-0.387-0.2-0.702-0.602-0.945
		s-0.875-0.294-1.419-0.151c-0.545,0.145-1.104,0.474-1.677,0.989c-0.574,0.517-1.047,1.025-1.419,1.526
		c-0.373,0.502-0.517,0.796-0.431,0.882c0.114,0.229,0.573,0.358,1.376,0.387C427.154,34.009,427.799,33.923,428.287,33.722z"/>
	<path fill="#3C3C3B" d="M443.38,30.239c1.376-0.975,2.414-1.463,3.117-1.463c0.702,0,1.196,0.273,1.483,0.817
		c0.516,0.918,0.487,1.734-0.086,2.451c-0.258,0.315-0.588,0.559-0.989,0.73c-0.401,0.173-0.688,0.259-0.859,0.259
		c-0.173,0-0.388-0.13-0.646-0.388s-0.401-0.473-0.43-0.645c0-0.144-0.402,0.107-1.204,0.752c-0.803,0.646-1.333,1.097-1.591,1.354
		c-0.66,0.804-1.821,2.867-3.483,6.192c-0.172,0.344-0.344,0.76-0.516,1.247c-0.316,0.889-0.56,1.361-0.731,1.419
		s-0.444,0.029-0.816-0.086c-1.462-0.458-1.521-1.662-0.173-3.612c0.201-0.401,0.588-1.44,1.161-3.117s0.903-2.615,0.989-2.816
		c0.058-0.487,0.028-0.831-0.086-1.032c-0.144-0.258-0.373-0.387-0.688-0.387c-0.316,0-0.517-0.015-0.603-0.043
		c-0.229-0.028-0.344-0.329-0.344-0.903c0.057-0.544,0.387-1.003,0.989-1.376c1.031-0.544,1.849-0.559,2.45-0.043
		c0.373,0.258,0.56,1.204,0.56,2.838C442.376,31.128,443.208,30.411,443.38,30.239z"/>
	<path fill="#3C3C3B" d="M452.366,42.149l-0.086-0.988c-0.688,0-1.032-0.114-1.032-0.345c0.028-0.859,0.129-1.447,0.301-1.763
		c0-0.2,0.101-0.565,0.301-1.097c0.2-0.53,0.315-0.859,0.345-0.988c0.028-0.13,0.114-0.566,0.258-1.312
		c0.286-1.577,0.645-2.853,1.075-3.827c0.745-2.638,1.361-4.516,1.849-5.634c0.43-1.748,0.803-2.98,1.118-3.697
		s0.688-1.52,1.118-2.408c0.43-0.889,0.688-1.426,0.773-1.612s0.302-0.796,0.646-1.828c0.086-0.258,0.314-0.422,0.688-0.494
		c0.372-0.071,0.674,0,0.903,0.215s0.372,0.359,0.43,0.431s0.114,0.157,0.172,0.258s0.093,0.187,0.107,0.258
		c0.015,0.072,0.007,0.18-0.021,0.322c-0.028,0.144-0.058,0.266-0.086,0.365c-0.028,0.102-0.093,0.273-0.193,0.517
		c-0.101,0.244-0.187,0.459-0.258,0.645c-0.072,0.188-0.187,0.467-0.344,0.839c-0.158,0.373-0.309,0.73-0.452,1.075
		c-0.172,0.2-0.616,1.275-1.333,3.225c-0.659,1.577-1.246,3.168-1.763,4.773l-1.247,4.644l1.161-1.29
		c1.175-1.003,2.508-1.855,3.999-2.559c1.49-0.702,2.551-0.938,3.182-0.709c0.373,0.114,0.81,0.423,1.312,0.924
		c0.502,0.502,0.796,0.954,0.882,1.354c0.372,0.832,0.05,2.193-0.968,4.085c-1.018,1.893-2.157,3.412-3.418,4.559
		c-0.459,0.229-0.975,0.688-1.548,1.376c-1.204,1.09-2.717,1.706-4.537,1.849C453.878,43.454,452.768,43.067,452.366,42.149z
		 M461.762,36.388c0.673-0.86,1.204-1.72,1.591-2.58c0.387-0.859,0.58-1.476,0.58-1.849c0-0.372-0.071-0.56-0.215-0.56
		s-0.645,0.172-1.505,0.517c-0.86,0.344-1.391,0.616-1.591,0.816c0,0.145-0.172,0.273-0.516,0.388
		c-1.606,1.204-2.717,2.207-3.333,3.01c-0.617,0.803-1.397,1.935-2.344,3.396c-0.258,0.545-0.659,1.047-1.204,1.506
		c0.144,0.028,0.373,0.043,0.688,0.043c1.634-0.2,3.081-0.688,4.343-1.463C459.919,38.323,461.088,37.248,461.762,36.388z"/>
	<path fill="#3C3C3B" d="M471.716,30.755c0.144-0.2,0.372-0.251,0.688-0.15c0.314,0.101,0.595,0.287,0.838,0.559
		c0.243,0.273,0.33,0.717,0.259,1.333c-0.072,0.617-0.395,1.936-0.968,3.956c-0.574,2.021-0.832,3.52-0.774,4.493
		c-0.172,1.319-0.301,1.993-0.387,2.021c-0.487,0.201-0.918-0.021-1.29-0.667c-0.373-0.645-0.588-1.225-0.645-1.741
		c0.114-1.089,0.2-1.863,0.258-2.322c0.229-1.06,0.595-2.515,1.097-4.364C471.293,32.023,471.602,30.984,471.716,30.755z
		 M473.394,22.95c0.057-0.415,0.215-0.81,0.473-1.183c0.258-0.372,0.522-0.565,0.795-0.58s0.695,0.093,1.269,0.322
		c0.086,0.086,0.194,0.287,0.323,0.602c0.129,0.316,0.243,0.596,0.344,0.839c0.1,0.244,0.164,0.424,0.193,0.537
		c0.028,0.115,0.064,0.28,0.107,0.495s0.043,0.395,0,0.537c-0.043,0.144-0.093,0.301-0.15,0.474
		c-0.115,0.315-0.315,0.573-0.602,0.773c-0.287,0.201-0.603,0.187-0.946-0.043c-0.287-0.028-0.667-0.279-1.14-0.752
		c-0.473-0.474-0.717-0.824-0.731-1.054S473.335,23.366,473.394,22.95z"/>
	<path fill="#3C3C3B" d="M488.055,32.088c0.688-0.315,1.161-0.473,1.42-0.473c0.258,0,0.68,0.258,1.268,0.773
		s0.939,0.946,1.054,1.29c0,0.315,0.05,0.652,0.15,1.011s0.136,1.054,0.107,2.085c-0.028,1.032-0.144,1.606-0.344,1.721
		c0,0.144,0.071,0.215,0.215,0.215v0.215c-0.315,0-0.337,0.266-0.064,0.796s0.538,0.924,0.796,1.182
		c0.258,0.259,0.358,0.538,0.301,0.839s-0.315,0.51-0.773,0.624c-1.118,0-1.907-0.53-2.365-1.592
		c-0.172-0.602-0.287-1.296-0.344-2.085c-0.059-0.788-0.037-1.269,0.064-1.44c0.1-0.172,0.143-0.638,0.129-1.397
		c-0.015-0.76-0.145-1.189-0.388-1.29s-0.595-0.007-1.053,0.279c-3.383,2.122-5.777,3.784-7.182,4.988
		c-0.373,0.401-0.816,1.031-1.333,1.892c-0.086,0.144-0.2,0.215-0.344,0.215c-0.287,0.144-0.703-0.014-1.247-0.473
		c-0.631-0.688-0.961-1.075-0.989-1.161c0-0.229,0.093-0.759,0.28-1.591c0.186-0.831,0.336-1.361,0.451-1.591
		c0.114,0,0.258-0.187,0.43-0.56c0.172-0.372,0.315-0.645,0.431-0.816c0.086-0.431,0.458-1.419,1.117-2.968
		c0.659-1.117,1.047-2.264,1.161-3.439c-0.028-0.114,0-0.222,0.086-0.322s0.187-0.151,0.301-0.151
		c0.517-0.486,1.054-0.357,1.613,0.388c0.559,0.745,0.788,1.483,0.688,2.214c-0.101,0.731-0.566,1.771-1.397,3.118
		c-0.401,0.975-0.602,1.52-0.602,1.634c1.146-0.774,1.949-1.318,2.408-1.634c0.229-0.258,0.845-0.717,1.849-1.376
		C486.951,32.547,487.653,32.174,488.055,32.088z"/>
	<path fill="#3C3C3B" d="M507.879,38.495c-0.115,0.688-0.172,1.763-0.172,3.225s-0.129,2.193-0.388,2.193
		c-0.487,0-0.889-0.2-1.204-0.603c-0.315-0.401-0.53-0.773-0.645-1.118c-0.115-0.344-0.129-0.845-0.043-1.505l0.172-1.978
		c-0.086,0-0.144-0.007-0.172-0.021c-0.029-0.015-0.122,0.028-0.279,0.129c-0.158,0.101-0.279,0.193-0.365,0.279
		c-0.087,0.086-0.237,0.215-0.452,0.387c-0.215,0.173-0.408,0.33-0.58,0.474c-2.523,2.838-4.645,4.143-6.364,3.913
		c-1.405-0.172-1.978-1.462-1.72-3.87c0.229-1.921,0.931-3.784,2.106-5.59c0.487-0.86,1.197-1.691,2.129-2.494
		c0.931-0.803,1.855-1.361,2.773-1.677c1.404-0.545,2.694-0.631,3.87-0.259c0.716,0.373,1.161,0.316,1.333-0.172
		c0.086-0.143,0.229-0.494,0.43-1.054c0.2-0.559,0.372-0.967,0.517-1.226c0.745-2.235,1.403-4.005,1.978-5.31
		c0.573-1.305,1.018-2.329,1.333-3.075c0.458-0.917,0.853-1.462,1.183-1.634c0.329-0.172,0.694-0.043,1.097,0.387
		c0.286,0.459,0.4,0.89,0.344,1.29c-0.058,0.402-0.315,1.147-0.774,2.236c-0.688,1.118-1.734,3.426-3.139,6.923
		c-0.029,0.144-0.165,0.624-0.408,1.44c-0.244,0.817-0.445,1.628-0.603,2.43c-0.157,0.803-0.322,1.204-0.494,1.204
		C508.825,33.966,508.337,35.657,507.879,38.495z M506.546,32.475c0-0.172-0.273-0.286-0.817-0.344
		c-1.663-0.229-3.368,0.703-5.117,2.795c-0.717,0.86-1.318,1.806-1.806,2.838c-1.004,2.036-1.219,3.182-0.645,3.44
		c0.802,0,2.121-0.831,3.956-2.494c0.773-0.745,1.705-1.906,2.795-3.483C506.001,33.65,506.546,32.732,506.546,32.475z"/>
	<path fill="#3C3C3B" d="M513.038,32.948l0.731-0.087c0.4,0,0.602,0.087,0.602,0.259c0.2,0.372,0.516,0.272,0.946-0.302
		c0.143-0.2,0.286-0.443,0.43-0.73c0.401-0.63,0.996-1.297,1.784-2c0.788-0.702,1.44-1.196,1.957-1.483
		c0.888-0.4,1.705-0.565,2.451-0.494c0.745,0.072,1.505,0.523,2.278,1.354c0.487,0.373,0.753,0.946,0.796,1.72
		c0.043,0.774-0.094,1.448-0.408,2.021c-0.115,0.43-0.566,0.975-1.354,1.634c-0.789,0.66-1.513,1.118-2.172,1.376
		c-0.602,0.144-1.362,0.236-2.279,0.279s-1.52-0.007-1.806-0.15c-0.201-0.114-0.358,0.064-0.473,0.537
		c-0.115,0.474-0.209,1.133-0.28,1.979s-0.05,1.361,0.065,1.548c0.113,0.187,0.229,0.322,0.344,0.408
		c1.003,1.032,2.063,1.09,3.182,0.173c0.344-0.315,0.724-0.688,1.14-1.118c0.415-0.431,0.724-0.731,0.925-0.903
		c0.229-0.401,0.716-0.501,1.462-0.301c0.286,0.258,0.423,0.502,0.408,0.73c-0.015,0.23-0.129,0.56-0.344,0.989
		s-0.603,0.896-1.161,1.397c-0.559,0.502-1.054,0.896-1.483,1.183c-1.52,0.803-3.039,0.918-4.559,0.344
		c-1.117-0.458-1.842-1.097-2.171-1.913c-0.33-0.817-0.424-1.871-0.279-3.161c0.143-1.29,0.2-2.092,0.172-2.407
		c-0.029-0.315-0.122-0.545-0.279-0.688c-0.158-0.143-0.309-0.286-0.452-0.43c-0.315-0.315-0.487-0.565-0.516-0.753
		c-0.029-0.186-0.008-0.4,0.064-0.645C512.83,33.07,512.923,32.948,513.038,32.948z M522.498,30.626
		c-0.43-0.487-1.075-0.415-1.935,0.215c-0.287,0.086-0.71,0.401-1.269,0.946c-0.56,0.545-1.04,1.082-1.44,1.612
		c-0.402,0.53-0.531,0.838-0.388,0.925c-0.028,0.058,0.007,0.101,0.107,0.129s0.229,0.05,0.388,0.064
		c0.157,0.015,0.308,0.028,0.451,0.043s0.279,0.015,0.408,0s0.416-0.058,0.86-0.129s0.724-0.129,0.839-0.173
		c0.114-0.043,0.314-0.15,0.602-0.322c0.344-0.2,0.846-0.773,1.505-1.72C522.827,31.442,522.784,30.913,522.498,30.626z"/>
	<path fill="#3C3C3B" d="M532.345,41.462l0.731-0.043c0.4-0.172,0.186,0.832-0.646,3.01c-0.144,0.229-0.294,0.479-0.451,0.753
		c-0.158,0.271-0.279,0.473-0.366,0.602c-0.086,0.129-0.172,0.251-0.258,0.365c-0.144,0.229-0.258,0.345-0.344,0.345
		c-0.946-0.145-1.584-0.495-1.913-1.054c-0.33-0.56-0.409-1.412-0.237-2.559c0.087-0.258,0.173-0.573,0.259-0.946
		c0.143-0.802,0.286-1.261,0.43-1.376c0.114-0.143,0.114-0.271,0-0.387c0-0.372,0.258-1.218,0.774-2.537
		c-0.173-0.229-0.102-0.479,0.215-0.753c0.314-0.271,0.422-0.479,0.322-0.623c-0.101-0.144-0.051-0.415,0.15-0.817
		c0.2-0.4,0.437-0.859,0.71-1.376c0.271-0.516,0.437-0.859,0.494-1.031c-0.029-0.086,0.208-0.674,0.709-1.764
		c0.502-1.089,0.824-1.763,0.968-2.021c0.229-0.114,0.136-0.208-0.279-0.279c-0.416-0.071-1.24-0.108-2.473-0.108
		s-2.122-0.157-2.666-0.473c-0.688-0.745-0.473-1.146,0.646-1.204l5.633-0.473l0.129-0.731c0.716-1.231,1.132-2.207,1.247-2.924
		c0.487-0.773,0.773-1.505,0.859-2.192c0.487-0.774,0.832-1.369,1.032-1.785c0.2-0.415,0.315-0.638,0.345-0.666
		c0.314-0.258,0.537-0.388,0.666-0.388s0.408,0.145,0.839,0.431c1.089,0.688,1.361,1.275,0.816,1.763
		c-0.114,0.229-0.287,0.688-0.516,1.376c-0.603,0.746-0.975,1.52-1.118,2.322c-0.602,1.262-0.975,1.892-1.118,1.892
		c0,0.287,0.215,0.431,0.646,0.431c0.945-0.058,1.562-0.114,1.849-0.173c0.286-0.057,0.473-0.1,0.559-0.129
		c0.259-0.028,0.517,0.015,0.774,0.129c0.229,0.345,0.365,0.695,0.408,1.054c0.043,0.359-0.079,0.624-0.365,0.796
		c-0.029,0-0.33,0.086-0.903,0.258c-0.458,0.115-1.763,0.272-3.913,0.473c-0.745,1.435-1.182,2.287-1.311,2.559
		c-0.13,0.273-0.194,0.438-0.194,0.495l-1.806,3.783c-0.115,0-0.172,0.086-0.172,0.259c0.114,0.344,0.1,0.573-0.043,0.688
		c-0.229,0.201-0.43,0.43-0.603,0.688c0.144,0.144,0.071,0.473-0.215,0.988c0,0.488-0.2,1.219-0.602,2.193
		c0.028,0.516,0.057,0.846,0.086,0.989C532.158,41.434,532.229,41.49,532.345,41.462z"/>
	<path fill="#3C3C3B" d="M542.02,38.753c0.516-0.315,0.896-0.487,1.139-0.517c0.244-0.027,0.624,0.072,1.14,0.302
		c0.86,0.545,1.24,1.146,1.14,1.806c-0.101,0.66-0.681,1.247-1.741,1.763c-0.975,0.402-1.821,0.33-2.537-0.215
		C540.127,40.889,540.413,39.843,542.02,38.753z"/>
</g>
</svg>
