<?xml version="1.0" encoding="UTF-8" standalone="no"?>
<!-- Created with Inkscape (http://www.inkscape.org/) -->

<svg
   xmlns:dc="http://purl.org/dc/elements/1.1/"
   xmlns:cc="http://creativecommons.org/ns#"
   xmlns:rdf="http://www.w3.org/1999/02/22-rdf-syntax-ns#"
   xmlns:svg="http://www.w3.org/2000/svg"
   xmlns="http://www.w3.org/2000/svg"
   xmlns:sodipodi="http://sodipodi.sourceforge.net/DTD/sodipodi-0.dtd"
   xmlns:inkscape="http://www.inkscape.org/namespaces/inkscape"
   width="25.670933mm"
   height="34.388981mm"
   viewBox="0 0 90.959998 121.85072"
   id="svg4226"
   version="1.1"
   inkscape:version="0.91 r13725"
   sodipodi:docname="logo_int.svg">
  <defs
     id="defs4228" />
  <sodipodi:namedview
     id="base"
     pagecolor="#ffffff"
     bordercolor="#666666"
     borderopacity="1.0"
     inkscape:pageopacity="0.0"
     inkscape:pageshadow="2"
     inkscape:zoom="4.7578125"
     inkscape:cx="89.959275"
     inkscape:cy="23.532515"
     inkscape:document-units="px"
     inkscape:current-layer="g4179"
     showgrid="false"
     fit-margin-top="0"
     fit-margin-left="0"
     fit-margin-right="0"
     fit-margin-bottom="0"
     inkscape:window-width="1920"
     inkscape:window-height="1017"
     inkscape:window-x="-8"
     inkscape:window-y="-8"
     inkscape:window-maximized="1" />
  <metadata
     id="metadata4231">
    <rdf:RDF>
      <cc:Work
         rdf:about="">
        <dc:format>image/svg+xml</dc:format>
        <dc:type
           rdf:resource="http://purl.org/dc/dcmitype/StillImage" />
        <dc:title></dc:title>
      </cc:Work>
    </rdf:RDF>
  </metadata>
  <g
     inkscape:label="Ebene 1"
     inkscape:groupmode="layer"
     id="layer1"
     transform="translate(-263.90588,-426.47134)">
    <g
       transform="translate(196.50418,375.44419)"
       id="g4179">
      <g
         id="g19"
         transform="matrix(0.1,0,0,0.1,0.0520161,0.0521388)"
         style="">
        <g
           id="g21"
           style="">
          <path
             style="fill:#ffffff;"
             d="m 690.81616,1379.2865 49.55078,-7.5391 c 2.09961,9.6094 6.36719,16.8946 12.8125,21.875 6.43555,4.9805 15.45898,7.461 27.05078,7.461 12.76367,0 22.36328,-2.3438 28.80859,-7.0313 4.33594,-3.2812 6.49414,-7.6562 6.49414,-13.164 0,-3.75 -1.16211,-6.8555 -3.51563,-9.3164 -2.44141,-2.3438 -7.95898,-4.4922 -16.50391,-6.5039 -39.80469,-8.7696 -65.04883,-16.7969 -75.71289,-24.0625 -14.75586,-10.0782 -22.12891,-24.0821 -22.12891,-41.9922 0,-16.1524 6.36719,-29.7315 19.14063,-40.7471 12.75391,-11.0059 32.55859,-16.5137 59.375,-16.5137 25.52734,0 44.51172,4.1602 56.92383,12.4707 12.40234,8.3301 20.9668,20.6153 25.64453,36.8799 l -46.55273,8.6133 c -2.00195,-7.2461 -5.77148,-12.8125 -11.33789,-16.6797 -5.54688,-3.8721 -13.49609,-5.7959 -23.79883,-5.7959 -12.99805,0 -22.30469,1.8066 -27.92969,5.4443 -3.75,2.5782 -5.625,5.918 -5.625,10.0196 0,3.4961 1.65039,6.5039 4.93164,8.9453 4.44336,3.2812 19.80469,7.9101 46.10352,13.8867 26.28906,5.9766 44.6582,13.2812 55.07813,21.9531 10.30273,8.7891 15.44922,21.0157 15.44922,36.7188 0,17.0898 -7.13867,31.7969 -21.43555,44.1015 -14.29688,12.2852 -35.41992,18.4375 -63.4082,18.4375 -25.40039,0 -45.51758,-5.1562 -60.3418,-15.4492 -14.82421,-10.3125 -24.51171,-24.3164 -29.07226,-42.0117"
             inkscape:connector-curvature="0"
             id="path14_13_" />
          <path
             style="fill:#ffffff;"
             d="m 1007.5252,1323.2709 c -0.3418,-14.2969 -4.043,-25.1563 -11.0645,-32.5977 -7.02148,-7.4219 -15.56641,-11.1474 -25.64453,-11.1474 -10.78125,0 -19.67773,3.9209 -26.68945,11.7724 -7.04102,7.832 -10.49805,18.4961 -10.37109,31.9727 l 73.76957,0 z m -2.793,49.8828 49.1699,8.2617 c -6.3184,18.0274 -16.2988,31.7578 -29.9512,41.1914 -13.6328,9.4336 -30.71286,14.1407 -51.20114,14.1407 -32.44141,0 -56.45508,-10.6055 -72.02148,-31.7969 -12.30469,-16.9727 -18.45703,-38.418 -18.45703,-64.2969 0,-30.918 8.0957,-55.1367 24.24805,-72.6319 16.16211,-17.5195 36.60156,-26.2695 61.30859,-26.2695 27.76367,0 49.65821,9.1504 65.69341,27.5 16.0546,18.3155 23.7304,46.4014 23.0175,84.2139 l -123.66209,0 c 0.35156,14.6484 4.32617,26.0351 11.93359,34.1797 7.61719,8.1445 17.09961,12.207 28.4668,12.207 7.73438,0 14.22852,-2.0898 19.49219,-6.3281 5.27343,-4.2188 9.24801,-11.0156 11.96291,-20.3711"
             inkscape:connector-curvature="0"
             id="path16_13_" />
          <path
             style="fill:#ffffff;"
             d="m 1124.7615,1436.6303 -50.3028,0 0,-190.1026 46.7188,0 0,27.0313 c 7.9883,-12.7637 15.1855,-21.1817 21.582,-25.2442 6.3672,-4.0625 13.6231,-6.084 21.7481,-6.084 11.4453,0 22.4804,3.1641 33.1054,9.4825 l -15.5761,43.8623 c -8.4766,-5.4883 -16.3477,-8.2422 -23.6328,-8.2422 -7.0313,0 -13.0079,1.9531 -17.9004,5.8398 -4.8926,3.8672 -8.7403,10.8789 -11.5528,21.0156 -2.8027,10.1563 -4.1894,31.3868 -4.1894,63.7305 l 0,58.711"
             inkscape:connector-curvature="0"
             id="path18-1_13_" />
          <path
             style="fill:#ffffff;"
             d="m 1280.7283,1436.6498 -74.3457,-194.5361 51.2402,0 34.7363,99.2822 10.0879,33.164 c 2.6465,-8.4375 4.336,-13.9843 5.0293,-16.6796 1.6114,-5.5079 3.3496,-10.9961 5.2051,-16.4844 l 35.0781,-99.2823 50.2149,0 -73.3008,194.5362 -43.9453,0"
             inkscape:connector-curvature="0"
             id="path20_13_" />
          <path
             style="fill:#ffffff;"
             d="m 1516.9099,1322.7631 c -0.3613,-14.2774 -4.0527,-25.1368 -11.0742,-32.5586 -7.0215,-7.461 -15.5762,-11.167 -25.6543,-11.167 -10.7813,0 -19.668,3.9209 -26.6992,11.7724 -7.0215,7.8516 -10.4785,18.4961 -10.3711,31.9532 l 73.7988,0 z m -2.8222,49.9023 49.1992,8.2617 c -6.3282,18.0469 -16.3184,31.7578 -29.961,41.1914 -13.6328,9.4141 -30.7129,14.1407 -51.2109,14.1407 -32.4316,0 -56.4453,-10.6055 -72.0215,-31.7969 -12.2949,-16.9727 -18.4473,-38.418 -18.4473,-64.2969 0,-30.918 8.086,-55.1367 24.2481,-72.6416 16.1621,-17.5 36.5918,-26.2598 61.3086,-26.2598 27.7539,0 49.6484,9.1602 65.6933,27.4903 16.0547,18.3252 23.7207,46.4111 23.0274,84.2431 l -123.6914,0 c 0.3711,14.6289 4.3457,26.0157 11.9531,34.1797 7.6172,8.125 17.0996,12.1875 28.457,12.1875 7.7246,0 14.2286,-2.1094 19.502,-6.3281 5.2734,-4.1992 9.2383,-10.9961 11.9434,-20.3711"
             inkscape:connector-curvature="0"
             id="path22_13_" />
          <path
             style="fill:#ffffff;"
             d="m 726.26538,1472.8412 0,13.2617 -11.39648,0 0,25.3906 c 0,5.1563 0.11719,8.125 0.33203,9.004 0.22461,0.8398 0.71289,1.5429 1.48438,2.0898 0.78125,0.5664 1.71875,0.8398 2.82227,0.8398 1.55273,0 3.76953,-0.5273 6.68945,-1.6015 l 1.42578,12.9101 c -3.86719,1.6797 -8.26172,2.5 -13.16406,2.5 -2.99805,0 -5.70313,-0.4882 -8.11523,-1.5039 -2.4121,-1.0156 -4.18945,-2.3242 -5.30273,-3.9062 -1.13281,-1.6211 -1.91406,-3.7696 -2.34375,-6.5039 -0.36133,-1.9532 -0.53711,-5.8594 -0.53711,-11.7383 l 0,-27.4805 -7.65625,0 0,-13.2617 7.65625,0 0,-12.5195 16.70898,-9.7266 0,22.2461 11.39647,0"
             inkscape:connector-curvature="0"
             id="path24_13_" />
          <path
             style="fill:#ffffff;"
             d="m 754.43921,1448.8763 0,31.9532 c 5.38086,-6.2891 11.79688,-9.4141 19.27734,-9.4141 3.82813,0 7.28516,0.7031 10.37109,2.1289 3.08593,1.4258 5.40039,3.2422 6.96289,5.4688 1.57227,2.207 2.63672,4.6484 3.21289,7.3437 0.56641,2.6953 0.86914,6.875 0.86914,12.5 l 0,36.9532 -16.67969,0 0,-33.2618 c 0,-6.6015 -0.30273,-10.8007 -0.95703,-12.5781 -0.61523,-1.7773 -1.73828,-3.1836 -3.34961,-4.2383 -1.5918,-1.0547 -3.59375,-1.5625 -6.01563,-1.5625 -2.75391,0 -5.22461,0.6641 -7.40234,2.0117 -2.16797,1.3282 -3.7793,3.3789 -4.78516,6.0743 -0.99609,2.7148 -1.50391,6.6992 -1.50391,12.0117 l 0,31.5429 -16.66016,0 0,-86.9335 16.66018,0"
             inkscape:connector-curvature="0"
             id="path26_13_" />
          <path
             style="fill:#ffffff;"
             d="m 849.43921,1498.9349 c -0.11719,-4.8242 -1.36719,-8.496 -3.73047,-11.0156 -2.37305,-2.5 -5.25391,-3.75 -8.65234,-3.75 -3.64258,0 -6.65039,1.3086 -9.02344,3.9649 -2.36328,2.6562 -3.54492,6.25 -3.49609,10.8007 l 24.90234,0 z m -0.9375,16.836 16.58203,2.7734 c -2.11914,6.1133 -5.48828,10.7422 -10.09766,13.9258 -4.60938,3.1836 -10.36133,4.7656 -17.28516,4.7656 -10.9375,0 -19.05273,-3.5742 -24.31641,-10.7422 -4.14063,-5.7226 -6.2207,-12.9492 -6.2207,-21.6992 0,-10.4297 2.71484,-18.6133 8.18359,-24.5312 5.44922,-5.8985 12.35352,-8.8477 20.69336,-8.8477 9.375,0 16.76758,3.1055 22.1875,9.2773 5.41992,6.1915 8.00781,15.6641 7.76367,28.4375 l -41.74803,0 c 0.10742,4.9415 1.45508,8.7891 4.02344,11.5235 2.58789,2.7539 5.77148,4.1406 9.60938,4.1406 2.60742,0 4.80469,-0.7226 6.58203,-2.1484 1.77734,-1.4258 3.13476,-3.711 4.04296,-6.875"
             inkscape:connector-curvature="0"
             id="path28_13_" />
          <path
             style="fill:#ffffff;"
             d="m 1054.9861,1508.0756 -48.3203,8.7109 c -1.6211,-9.6484 -5.3125,-16.9141 -11.06448,-21.7969 -5.75195,-4.8828 -13.21289,-7.3242 -22.40234,-7.3242 -12.20703,0 -21.94336,4.2187 -29.20898,12.6367 -7.26563,8.4375 -10.89844,22.5195 -10.89844,42.2852 0,21.9726 3.68164,37.5 11.07422,46.5625 7.38281,9.0625 17.28516,13.5937 29.72656,13.5937 9.30664,0 16.91406,-2.6367 22.8418,-7.9297 5.93746,-5.2929 10.11716,-14.375 12.54886,-27.2851 l 48.125,8.1836 c -5,22.0898 -14.5899,38.7695 -28.7696,50.0586 -14.1797,11.2695 -33.18355,16.914 -57.01168,16.914 -27.08984,0 -48.67188,-8.5547 -64.77539,-25.6445 -16.10351,-17.0898 -24.15039,-40.7422 -24.15039,-70.957 0,-30.5664 8.08594,-54.3946 24.23828,-71.4063 16.15234,-17.0312 38.00781,-25.5469 65.56641,-25.5469 22.53906,0 40.46877,4.8438 53.78907,14.5508 13.3008,9.7071 22.8711,24.4922 28.6914,44.3946"
             inkscape:connector-curvature="0"
             id="path30_13_" />
          <path
             style="fill:#ffffff;"
             d="m 1076.8806,1642.3724 0,-4.0625 2.666,0 -2.666,0 0,4.0625 -2.6758,0 0,-193.1054 50.4395,0 0,193.1054 -47.7637,0 0,0"
             inkscape:connector-curvature="0"
             id="path32-3_13_" />
          <path
             style="fill:#ffffff;"
             d="m 1258.033,1448.7396 0,39.6485 -33.4864,0 0,75.7812 c 0,15.332 0.3125,24.2578 0.9668,26.7969 0.625,2.5391 2.0899,4.6484 4.336,6.2891 2.2949,1.6601 5.0488,2.4804 8.3203,2.4804 4.5215,0 11.0742,-1.582 19.6875,-4.7851 l 4.1797,38.5937 c -11.3965,4.961 -24.3067,7.4414 -38.711,7.4414 -8.8281,0 -16.7871,-1.5039 -23.8867,-4.5312 -7.0898,-2.9883 -12.2949,-6.8946 -15.6055,-11.6797 -3.3105,-4.7656 -5.6054,-11.2305 -6.8847,-19.375 -1.0449,-5.7813 -1.5723,-17.4805 -1.5723,-35.0586 l 0,-81.9531 -22.4902,0 0,-39.6485 22.4902,0 0,-37.3437 49.1699,-29.0235 0,66.3672 33.4864,0"
             inkscape:connector-curvature="0"
             id="path34_13_" />
          <path
             style="fill:#ffffff;"
             d="m 1283.4919,1448.8373 52.129,0 44.2968,131.4648 43.2325,-131.4648 50.7617,0 -65.4102,178.2031 -11.6699,32.2656 c -4.3066,10.8008 -8.4082,19.043 -12.2949,24.7461 -3.8965,5.7032 -8.3692,10.3321 -13.418,13.8672 -5.0586,3.5547 -11.2793,6.3086 -18.6719,8.2813 -7.373,1.9726 -15.7129,2.9687 -25.0195,2.9687 -9.4043,0 -18.6523,-0.9961 -27.7148,-2.9687 l -4.3555,-38.3594 c 7.6758,1.5039 14.5703,2.2656 20.7422,2.2656 11.3965,0 19.8242,-3.3398 25.2734,-10.039 5.4688,-6.6797 9.6582,-15.1758 12.5684,-25.5274 l -70.4493,-185.7031"
             inkscape:connector-curvature="0"
             id="path36_13_" />
          <path
             style="fill:#ffffff;"
             d="m 1492.2322,1620.6342 c 0,11.4843 -9.3067,20.8007 -20.8203,20.8007 -11.4649,0 -20.791,-9.3164 -20.791,-20.8007 0,-11.4844 9.3261,-20.8008 20.791,-20.8008 11.5136,0 20.8203,9.3164 20.8203,20.8008"
             inkscape:connector-curvature="0"
             id="path38_13_" />
        </g>
      </g>
      <path
         inkscape:connector-curvature="0"
         id="path40"
         style="fill:#ffffff;fill-opacity:1;fill-rule:nonzero;stroke:none"
         d="m 137.70064,92.611452 c 0.22099,-0.127208 0.30292,-0.351802 0.40175,-0.271308 0.25872,-0.286044 0.59327,-1.780921 0.64753,-2.251668 0.18543,0.187218 0.37013,0.375158 0.55483,0.562376 0.0388,-0.289273 0.0775,-0.579266 0.11679,-0.869258 0.0187,0.941487 1.91424,-1.075168 2.0878,-0.940054 0.24149,-0.289992 0.30043,-0.60981 0.16998,-0.964127 0.61916,-0.377672 0.76326,0.09343 1.06151,-0.335273 0.0177,0.124694 3.88562,-3.325754 3.00164,-3.665337 0.69281,0.169254 0.82181,0.01441 0.38737,-0.46679 0.25441,0.102053 0.50955,0.204108 0.76253,0.305441 -0.0154,0.01654 -0.19548,-0.417916 -0.244,-0.449541 0.14913,-0.188659 0.419,0.315148 0.46644,0.388097 0.10385,-0.477932 0.81931,-0.734149 0.0805,-1.137696 0.28352,-0.0013 0.56705,0.01221 0.84913,0.04169 0.28425,-2.244477 3.56796,-2.183034 3.96253,-3.93269 0.39061,0.239683 1.06475,-0.695339 1.02665,-0.6055 3.12057,-2.112962 2.77092,-9.766696 -4.4117,-5.103448 0.0885,-0.05642 -0.45027,0.612685 -0.29323,0.519616 -0.30544,0.05569 -3.85795,3.833872 -3.67827,4.092244 -1.11901,0.85381 0.13115,1.870756 0.60046,2.582266 -2.21933,-1.004731 -2.51651,-1.199141 -3.77422,1.366595 -0.56525,-0.0108 -2.61569,4.110934 -3.27437,3.506508 -0.59795,0.864235 0.32053,2.868669 1.23112,3.560053 -0.47685,0.514948 -2.4087,-1.845605 -2.63617,-2.172252 0.27202,0.622389 -0.1768,0.07547 -0.38953,0.02838 -0.24327,0.257648 0.0687,1.210281 0.22279,1.372344 -0.15344,0.254419 -0.88147,-0.549441 -1.0403,-0.587176 0.12469,0.256579 0.25011,0.514227 0.37515,0.77188 -1.14488,-1.232921 -1.90742,0.01721 -2.06049,-0.102775 -0.46428,0.315868 -0.96162,0.533992 -1.49236,0.655451 -2.6387,3.932696 0.59793,7.507841 4.51914,4.6 0.005,0.05536 0.008,0.119305 0.005,0.192968 0.1441,-0.301847 0.53471,-0.64862 0.48942,-0.534706 0.0605,-0.141583 0.34174,-0.286757 0.27456,-0.156313 z m 19.55242,2.119429 c -0.10133,-0.937898 -1.363,-1.610593 -1.32887,-1.621372 -0.14481,-0.14554 -0.31766,-0.243638 -0.51925,-0.292868 0.0251,-0.05604 -3.97725,0.806734 -4.7671,1.692522 -0.64503,0.724084 -2.89993,2.625032 -2.22399,3.521962 -0.19189,-0.12182 -0.35504,-0.27562 -0.4862,-0.4614 -0.89297,0.41324 -0.0916,1.47728 0.0909,2.04612 -1.11434,-0.62814 -0.88327,-2.16902 -2.47769,-1.10212 -0.50956,0.3421 -1.85926,1.960595 -2.11729,1.625335 -1.17361,0.66838 -3.00988,1.8571 -4.38942,2.795 -2.24016,1.52723 -1.05395,2.47265 -1.22896,4.37755 -0.28604,3.13531 13.66561,-2.67461 11.34423,-5.50123 0.14337,-0.19297 0.57279,0.26987 0.68707,0.3252 -0.0148,-0.31406 -0.0974,-0.61052 -0.24615,-0.88578 0.32162,-0.0606 0.78481,0.42044 0.91705,0.57927 0.0801,-0.55484 1.85136,-1.19411 1.60736,-1.52399 0.75894,-0.11967 1.68498,-0.473985 2.21502,-1.053975 -9.7e-4,0.0564 -0.0122,0.11283 -0.0317,0.16746 1.2994,-0.55303 3.12166,-3.106199 2.95492,-4.687684 z m -75.338794,-6.60444 c 0.05799,-0.03088 0.105863,-0.06972 0.150783,-0.112834 0.883486,-0.685635 0.713769,-1.241186 0.546602,-1.785597 -0.0069,-0.02375 -0.01264,-0.04852 -0.0191,-0.07366 0.0024,-0.003 0.0024,-0.0074 0.0037,-0.01148 -0.0024,0.0013 -0.0037,0.0013 -0.0056,0.0013 -0.09853,-0.415041 -0.08761,-1.14272 0.03187,-2.114753 0.04059,0.0013 0.04957,-0.0065 0.0056,-0.03986 0.02472,-0.194403 0.05378,-0.399953 0.08632,-0.61412 0.115813,-0.269874 0.173637,-0.570286 0.09924,-0.597956 l 0,-5.44e-4 c 0.003,-0.0083 0.0108,-0.04926 0.02106,-0.113193 0.0108,-0.06324 0.02258,-0.125056 0.03437,-0.187939 0.344721,-1.838422 -0.117076,-3.405529 -0.326501,-3.528428 -0.119451,-0.069 -0.294919,-0.260168 -0.424069,-0.411812 -0.544911,-0.767924 -1.191737,-2.309883 -1.362286,-2.276462 -1.866769,-0.745286 -3.758697,-3.151833 -5.968821,-1.819016 -2.259255,1.364441 -0.754202,4.152972 0.174064,5.836515 1.468111,2.661685 0.892618,5.808485 3.469823,7.875091 -0.125378,-0.10098 1.987764,1.658748 2.499004,1.954131 0.08013,0.04633 1.801907,0.207702 1.499267,-1.126913 0.401752,-0.08337 0.599251,-0.325574 0.595869,-0.72409 -0.137409,0.421157 -1.015298,-0.05279 -1.111315,-0.127924 z m 46.929184,9.873784 c -0.43014,-3.301682 -2.86005,-5.150524 -2.86005,-5.150524 0,0 -0.003,0.0071 -0.009,0.01831 -0.32808,-0.342457 -0.97958,-0.65509 -2.25562,-0.998627 -1.61383,-0.434453 -2.9373,-2.821955 -4.66504,-4.036546 -1.79387,-1.259869 -2.88556,-1.071931 -4.85551,-1.656946 -1.99077,-0.592206 -2.46153,-2.189504 -4.91479,-1.914246 -1.65227,0.185424 -3.91365,1.014436 -2.91466,2.990487 -1.23436,-0.468226 -0.75786,0.283523 -0.75786,0.283523 -3.18633,1.46722 0.7823,6.219577 -0.0737,7.741417 -2.30989,-0.971679 -2.28545,2.077386 -3.2794,3.774576 -1.03564,1.766191 -3.575504,1.631441 -3.277962,3.651691 -3.290904,-2.18519 -4.615455,-1.73708 -8.346915,-1.70259 -3.382073,0.0327 -5.253764,-1.435591 -6.672073,3.04655 -1.103843,3.495 -0.07115,7.45645 1.598123,11.04021 l 0.813168,-0.0693 6.328105,0 0,2.85751 2.029226,1.14237 0,-2.14207 3.575509,-0.39779 0,0.86278 2.558189,0 0,-1.09276 3.23952,-0.57137 0,-1.34899 4.19968,0 0,1.34899 1.20921,0.25945 0,-4.28701 1.68389,-3.28228 1.68426,3.28228 0,5.32336 1.96455,0.41218 0,-13.72562 2.72027,-0.77582 2.24699,0.90626 0,12.57248 3.3236,1.14344 0,-2.46332 1.65695,0 1.469,0.56165 0,3.98552 1.85604,-0.57136 0,-1.09708 2.28975,0.002 0,-1.78091 1.89089,0 c 0.0188,-0.0335 0.0303,-0.0601 0.0342,-0.0769 0.0162,-0.34856 1.73206,-1.2915 1.87615,-2.1859 0.0342,-0.0916 0.0601,-0.19189 0.0748,-0.30545 0.37408,-2.85178 -0.62815,-6.72698 -1.09636,-7.65229 -0.46896,-0.92604 -3.97798,-5.11244 -4.34344,-7.921091 z M 126.23782,83.62957 c 1.48016,-1.334969 3.2539,-0.502006 4.11129,-2.59664 l 0.0169,5.43e-4 c 0.0866,-0.183629 0.0809,-0.54836 0.0768,-0.563095 0.42115,0.157394 0.53542,-0.335274 0.63999,-0.299699 0.2034,-0.420431 0.0704,-0.875008 0.15633,-0.720849 0.23106,-0.302213 0.21093,-0.794153 0.52607,-1.262386 -0.7884,-0.719412 0.24221,-0.212373 0.33923,-0.696773 -0.29179,-0.174284 -0.0963,-0.406782 0.21812,-0.318381 0.81249,-0.655449 0.69031,-1.930772 1.57898,-2.290477 -0.28533,-0.131883 0.36114,-1.580769 1.17254,-1.196627 0.19585,-0.658683 2.68397,-7.015534 3.69337,-6.825798 -0.13763,-0.438404 -0.42187,-0.743848 -0.8538,-0.917054 0.77043,0.06971 2.09031,-2.149613 2.54704,-1.866088 0.40356,-0.38055 0.60945,-0.858841 0.6224,-0.770441 0.69354,-0.263401 2.08134,-2.809016 2.17477,-3.633719 0.22099,-1.966346 -0.69139,-5.412126 -4.84113,-3.666058 -1.79278,0.75427 -3.92227,4.938148 -4.0768,5.388769 -0.003,0.03162 -0.007,0.06288 -0.018,0.09127 0.006,0.02693 0.0363,1.360486 0.0355,1.8377 5.5e-4,0.546926 -1.25232,0.652932 -1.25232,0.652932 -0.12902,0.191893 0.54512,0.842671 -0.22963,0.18219 0.0571,0.02694 -0.26951,1.085588 -0.29646,1.079119 -0.0801,-0.03558 -6.0683,6.807472 -5.50663,9.484968 -0.0779,-0.02085 -0.15668,-0.04133 -0.23429,-0.06145 -0.0406,0.171767 -0.0324,0.342816 0.0219,0.51207 -1.9818,-0.02766 -2.19777,3.174111 -3.34121,4.157283 0.0768,0.18363 0.20913,0.2785 0.39851,0.287479 -2.65845,1.026297 1.41224,4.831783 2.32031,4.011034 z m -11.2835,-24.013005 c 0.23861,0.170689 0.44739,0.362941 0.2688,0.435889 0.34784,-0.0089 0.0826,0.237167 -0.0233,0.169969 0.77691,1.353662 4.97695,2.027796 4.88136,2.031748 -0.0464,0.0019 -0.0396,0.0593 0.1017,0.256934 0.2095,-0.125412 0.62778,-0.859557 0.79739,-0.876446 -0.009,-0.235733 0.0535,-0.948676 -0.31658,-0.823265 0.13583,-0.114272 0.087,-0.331318 -0.0758,-0.340303 0.3385,-0.388812 1.87543,-2.320303 0.86639,-2.113679 0.14122,-0.256214 0.82828,-0.756787 0.89081,-0.722647 0.16458,-0.261245 1.10751,-2.759784 0.68385,-4.293479 -0.56634,-2.054387 -2.33218,-2.933707 -4.16736,-1.842371 -1.68354,1.002218 -4.45913,5.938929 -3.86513,7.317743 0.15057,-0.195844 0.13187,0.73738 -0.0421,0.799907 z m -2.30484,21.393011 c 0.3421,-0.20663 1.28501,-1.953411 1.32202,-1.780207 0.52825,1.018387 1.90383,-0.818954 2.09536,-1.062947 -0.26197,-0.467154 0.14194,-0.319102 0.36115,-0.417923 0.16313,-0.2422 0.0194,-0.443074 -0.39241,-0.408218 -0.22351,-0.167096 0.41936,-0.520334 0.35467,-0.706476 0.52752,0.381625 0.59436,-2.111523 0.90664,-2.19597 1.22932,-2.490276 -0.64755,-2.465121 -2.46189,-3.258557 0.90986,-0.05498 3.21831,0.464274 2.94628,-0.581426 0,0 0.45385,-0.400311 0.44631,-0.681682 1.45177,-2.665277 1.77087,-6.557365 1.38852,-6.92857 -0.45098,-0.43517 -3.69445,-2.08062 -4.19251,-1.132662 1.14632,0.564894 -1.00472,0.431934 -0.97705,0.392406 -0.93035,0.245433 -4.42644,12.353635 -5.12286,15.170555 0.0288,-0.01294 0.40571,1.053965 0.41038,1.04031 0.52859,-0.55591 -0.20304,1.653719 -0.72732,2.395047 -0.38486,0.293228 2.41086,0.901603 3.64271,0.15632" />
    </g>
  </g>
</svg>
