<?xml version="1.0" encoding="UTF-8" standalone="no"?>
<!-- Created with Inkscape (http://www.inkscape.org/) -->

<svg
   xmlns:dc="http://purl.org/dc/elements/1.1/"
   xmlns:cc="http://creativecommons.org/ns#"
   xmlns:rdf="http://www.w3.org/1999/02/22-rdf-syntax-ns#"
   xmlns:svg="http://www.w3.org/2000/svg"
   xmlns="http://www.w3.org/2000/svg"
   xmlns:sodipodi="http://sodipodi.sourceforge.net/DTD/sodipodi-0.dtd"
   xmlns:inkscape="http://www.inkscape.org/namespaces/inkscape"
   width="62.215622mm"
   height="17.019598mm"
   viewBox="0 0 220.44905 60.305661"
   id="svg4285"
   version="1.1"
   inkscape:version="0.91 r13725"
   sodipodi:docname="logo_wide.svg">
  <defs
     id="defs4287">
    <filter
       style="color-interpolation-filters:sRGB;"
       inkscape:label="Drop Shadow"
       id="filter4619">
      <feFlood
         flood-opacity="0.909804"
         flood-color="rgb(255,255,255)"
         result="flood"
         id="feFlood4621" />
      <feComposite
         in="flood"
         in2="SourceGraphic"
         operator="in"
         result="composite1"
         id="feComposite4623" />
      <feGaussianBlur
         in="composite1"
         stdDeviation="3"
         result="blur"
         id="feGaussianBlur4625" />
      <feOffset
         dx="0"
         dy="1.52656e-015"
         result="offset"
         id="feOffset4627" />
      <feComposite
         in="SourceGraphic"
         in2="offset"
         operator="over"
         result="composite2"
         id="feComposite4629" />
    </filter>
  </defs>
  <sodipodi:namedview
     id="base"
     pagecolor="#ffffff"
     bordercolor="#666666"
     borderopacity="1.0"
     inkscape:pageopacity="0.0"
     inkscape:pageshadow="2"
     inkscape:zoom="5.71665"
     inkscape:cx="115.81352"
     inkscape:cy="5.7416243"
     inkscape:document-units="px"
     inkscape:current-layer="layer1"
     showgrid="false"
     fit-margin-top="3"
     fit-margin-bottom="2"
     fit-margin-right="3"
     fit-margin-left="3"
     inkscape:window-width="1920"
     inkscape:window-height="1017"
     inkscape:window-x="-8"
     inkscape:window-y="-8"
     inkscape:window-maximized="1" />
  <metadata
     id="metadata4290">
    <rdf:RDF>
      <cc:Work
         rdf:about="">
        <dc:format>image/svg+xml</dc:format>
        <dc:type
           rdf:resource="http://purl.org/dc/dcmitype/StillImage" />
        <dc:title></dc:title>
      </cc:Work>
    </rdf:RDF>
  </metadata>
  <g
     inkscape:label="Ebene 1"
     inkscape:groupmode="layer"
     id="layer1"
     transform="translate(-242.06189,-433.69412)">
    <g
       style="fill:#000000"
       transform="matrix(0.08621372,0,0,0.08621372,221.11291,325.9572)"
       id="serve_the_city">
      <path
         style="fill:#000000"
         d="m 1333.4336,1481.0352 c -0.3418,-14.2969 -4.043,-25.1563 -11.0645,-32.5899 -7.0214,-7.4297 -15.5664,-11.1523 -25.6445,-11.1523 -10.7812,0 -19.6777,3.9258 -26.6894,11.7695 -7.0411,7.8398 -10.4981,18.5039 -10.3711,31.9727 l 73.7695,0 z m -2.793,49.8906 49.17,8.2617 c -6.3184,18.0273 -16.2989,31.7578 -29.9512,41.1836 -13.6328,9.4336 -30.7129,14.1484 -51.2012,14.1484 -32.4414,0 -56.4551,-10.6054 -72.0215,-31.7968 -12.3047,-16.9805 -18.457,-38.418 -18.457,-64.3047 0,-30.9102 8.0957,-55.1289 24.2481,-72.6289 16.1621,-17.5196 36.6015,-26.2696 61.3085,-26.2696 27.7637,0 49.6582,9.1524 65.6934,27.5 16.0547,18.3203 23.7305,46.4063 23.0176,84.2188 l -123.6621,0 c 0.3515,14.6484 4.3261,26.0351 11.9336,34.1719 7.6172,8.1445 17.0996,12.2148 28.4668,12.2148 7.7343,0 14.2285,-2.0977 19.4922,-6.3281 5.2734,-4.2188 9.248,-11.0156 11.9628,-20.3711"
         inkscape:connector-curvature="0"
         id="path16_3_" />
      <path
         style="fill:#000000"
         d="m 1450.6699,1594.4023 -50.3027,0 0,-190.1054 46.7187,0 0,27.0312 c 7.9883,-12.7656 15.1856,-21.1836 21.5821,-25.2461 6.3672,-4.0625 13.623,-6.082 21.748,-6.082 11.4453,0 22.4805,3.1641 33.1055,9.4805 l -15.5762,43.8594 c -8.4765,-5.4883 -16.3476,-8.2344 -23.6328,-8.2344 -7.0312,0 -13.0078,1.9453 -17.9004,5.832 -4.8926,3.875 -8.7402,10.8867 -11.5527,21.0234 -2.8027,10.1563 -4.1895,31.3868 -4.1895,63.7305 l 0,58.7109"
         inkscape:connector-curvature="0"
         id="path18-1_3_" />
      <path
         style="fill:#000000"
         d="m 1606.6367,1594.4219 -74.3457,-194.5391 51.2403,0 34.7363,99.2852 10.0879,33.1562 c 2.6465,-8.4297 4.3359,-13.9844 5.0293,-16.6719 1.6113,-5.5078 3.3496,-10.996 5.205,-16.4843 l 35.0782,-99.2852 50.2148,0 -73.3008,194.5391 -43.9453,0"
         inkscape:connector-curvature="0"
         id="path20_3_" />
      <path
         style="fill:#000000"
         d="m 1842.8184,1480.5352 c -0.3614,-14.2774 -4.0528,-25.1368 -11.0743,-32.5664 -7.0214,-7.4532 -15.5761,-11.1641 -25.6543,-11.1641 -10.7812,0 -19.6679,3.9258 -26.6992,11.7773 -7.0215,7.8438 -10.4785,18.4883 -10.3711,31.9532 l 73.7989,0 z m -2.8223,49.8945 49.1992,8.2617 c -6.3281,18.0469 -16.3183,31.7578 -29.9609,41.1992 -13.6328,9.4141 -30.7129,14.1328 -51.211,14.1328 -32.4316,0 -56.4453,-10.5976 -72.0214,-31.7968 -12.295,-16.9649 -18.4473,-38.4102 -18.4473,-64.2891 0,-30.918 8.0859,-55.1367 24.248,-72.6445 16.1621,-17.5 36.5918,-26.2618 61.3086,-26.2618 27.7539,0 49.6485,9.1602 65.6934,27.4922 16.0547,18.3203 23.7207,46.4063 23.0273,84.2383 l -123.6914,0 c 0.3711,14.6367 4.3457,26.0235 11.9531,34.1797 7.6172,8.1328 17.0997,12.1953 28.4571,12.1953 7.7246,0 14.2285,-2.1094 19.5019,-6.3281 5.2735,-4.207 9.2383,-11.0039 11.9434,-20.3789"
         inkscape:connector-curvature="0"
         id="path22_3_" />
      <path
         style="fill:#000000"
         d="m 1052.1738,1630.6133 0,13.2617 -11.3965,0 0,25.3906 c 0,5.1485 0.1172,8.125 0.3321,8.9961 0.2246,0.8477 0.7129,1.5508 1.4844,2.0977 0.7812,0.5586 1.7187,0.8398 2.8222,0.8398 1.5528,0 3.7696,-0.5351 6.6895,-1.6094 l 1.4258,12.918 c -3.8672,1.6719 -8.2618,2.5 -13.1641,2.5 -2.998,0 -5.7031,-0.4961 -8.1152,-1.5039 -2.4121,-1.0156 -4.1895,-2.3242 -5.3028,-3.9141 -1.1328,-1.6132 -1.914,-3.7695 -2.3437,-6.5039 -0.3613,-1.9453 -0.5371,-5.8515 -0.5371,-11.7382 l 0,-27.4727 -7.6563,0 0,-13.2617 7.6563,0 0,-12.5274 16.709,-9.7187 0,22.2461 11.3964,0"
         inkscape:connector-curvature="0"
         id="path24_3_" />
      <path
         style="fill:#000000"
         d="m 1080.3477,1606.6406 0,31.961 c 5.3808,-6.2891 11.7968,-9.4219 19.2773,-9.4219 3.8281,0 7.2852,0.7109 10.3711,2.1289 3.0859,1.4258 5.4004,3.25 6.9629,5.4687 1.5723,2.2071 2.6367,4.6563 3.2129,7.3516 0.5664,2.6875 0.8691,6.8672 0.8691,12.5 l 0,36.9531 -16.6797,0 0,-33.2695 c 0,-6.6015 -0.3027,-10.793 -0.957,-12.5703 -0.6152,-1.7773 -1.7383,-3.1836 -3.3496,-4.2461 -1.5918,-1.0469 -3.5938,-1.5547 -6.0156,-1.5547 -2.754,0 -5.2247,0.6563 -7.4024,2.0039 -2.168,1.336 -3.7793,3.3867 -4.7851,6.0821 -0.9961,2.707 -1.504,6.6992 -1.504,12.0117 l 0,31.5429 -16.6601,0 0,-86.9414 16.6602,0"
         inkscape:connector-curvature="0"
         id="path26_3_" />
      <path
         style="fill:#000000"
         d="m 1175.3477,1656.6992 c -0.1172,-4.8242 -1.3672,-8.4883 -3.7305,-11.0156 -2.3731,-2.5 -5.2539,-3.7422 -8.6524,-3.7422 -3.6425,0 -6.6503,1.3086 -9.0234,3.957 -2.3633,2.6563 -3.5449,6.2578 -3.4961,10.8008 l 24.9024,0 z m -0.9375,16.8438 16.582,2.7734 c -2.1191,6.1055 -5.4883,10.7344 -10.0977,13.918 -4.6093,3.1836 -10.3613,4.7734 -17.2851,4.7734 -10.9375,0 -19.0528,-3.5742 -24.3164,-10.7422 -4.1407,-5.7226 -6.2207,-12.957 -6.2207,-21.6992 0,-10.4297 2.7148,-18.6133 8.1836,-24.5312 5.4492,-5.8985 12.3535,-8.8555 20.6933,-8.8555 9.375,0 16.7676,3.1055 22.1875,9.2773 5.4199,6.1993 8.0078,15.6719 7.7637,28.4453 l -41.7481,0 c 0.1075,4.9415 1.4551,8.7891 4.0235,11.5235 2.5879,2.7539 5.7715,4.1328 9.6094,4.1328 2.6074,0 4.8046,-0.7148 6.582,-2.1406 1.7773,-1.4258 3.1348,-3.7188 4.043,-6.875"
         inkscape:connector-curvature="0"
         id="path28_3_" />
      <path
         style="fill:#000000"
         d="m 1380.8945,1665.8398 -48.3203,8.7188 c -1.6211,-9.6484 -5.3125,-16.9141 -11.0644,-21.8047 -5.752,-4.875 -13.2129,-7.3164 -22.4024,-7.3164 -12.207,0 -21.9433,4.2109 -29.209,12.6367 -7.2656,8.4297 -10.8984,22.5117 -10.8984,42.2774 0,21.9804 3.6816,37.5 11.0742,46.5703 7.3828,9.0625 17.2852,13.5859 29.7266,13.5859 9.3066,0 16.914,-2.6367 22.8418,-7.9219 5.9375,-5.2929 10.1172,-14.3828 12.5488,-27.2851 l 48.125,8.1836 c -5,22.082 -14.5898,38.7695 -28.7695,50.0507 -14.1797,11.2774 -33.1836,16.9141 -57.0117,16.9141 -27.0899,0 -48.6719,-8.5469 -64.7754,-25.6445 -16.1035,-17.0821 -24.1504,-40.7344 -24.1504,-70.9493 0,-30.5664 8.0859,-54.3945 24.2383,-71.4062 16.1523,-17.0313 38.0078,-25.5469 65.5664,-25.5469 22.539,0 40.4687,4.8438 53.789,14.5508 13.3008,9.7071 22.8711,24.4922 28.6914,44.3867"
         inkscape:connector-curvature="0"
         id="path30_3_" />
      <path
         style="fill:#000000"
         d="m 1402.7891,1800.1367 0,-4.0547 2.666,0 -2.666,0 0,4.0547 -2.6758,0 0,-193.0976 50.4394,0 0,193.0976 -47.7636,0 0,0"
         inkscape:connector-curvature="0"
         id="path32-3_3_" />
      <path
         style="fill:#000000"
         d="m 1583.9414,1606.5117 0,39.6485 -33.4863,0 0,75.7734 c 0,15.3398 0.3125,24.2656 0.9668,26.8047 0.625,2.5312 2.0898,4.6406 4.3359,6.2812 2.2949,1.6602 5.0488,2.4883 8.3203,2.4883 4.5215,0 11.0742,-1.5898 19.6875,-4.793 l 4.1797,38.5938 c -11.3965,4.9609 -24.3066,7.4492 -38.7109,7.4492 -8.8282,0 -16.7871,-1.5117 -23.8867,-4.5312 -7.0899,-2.9961 -12.295,-6.8946 -15.6055,-11.6797 -3.3106,-4.7735 -5.6055,-11.2383 -6.8848,-19.3828 -1.0449,-5.7735 -1.5722,-17.4727 -1.5722,-35.0508 l 0,-81.9531 -22.4903,0 0,-39.6485 22.4903,0 0,-37.3515 49.1699,-29.0235 0,66.375 33.4863,0"
         inkscape:connector-curvature="0"
         id="path34_3_" />
      <path
         style="fill:#000000"
         d="m 1609.4004,1606.6094 52.1289,0 44.2969,131.457 43.2324,-131.457 50.7617,0 -65.4101,178.2031 -11.67,32.2578 c -4.3066,10.8086 -8.4082,19.0508 -12.2949,24.7539 -3.8965,5.6953 -8.3691,10.3243 -13.4179,13.8672 -5.0586,3.5547 -11.2793,6.3086 -18.6719,8.2813 -7.3731,1.9726 -15.7129,2.9687 -25.0196,2.9687 -9.4043,0 -18.6523,-0.9961 -27.7148,-2.9687 l -4.3555,-38.3594 c 7.6758,1.5039 14.5703,2.2656 20.7422,2.2656 11.3965,0 19.8242,-3.3476 25.2735,-10.039 5.4687,-6.6797 9.6582,-15.1836 12.5683,-25.5352 l -70.4492,-185.6953"
         inkscape:connector-curvature="0"
         id="path36_3_" />
      <path
         style="fill:#000000"
         d="m 1818.1406,1778.4063 c 0,11.4765 -9.3066,20.8007 -20.8203,20.8007 -11.4648,0 -20.791,-9.3242 -20.791,-20.8007 0,-11.4922 9.3262,-20.8008 20.791,-20.8008 11.5137,0 20.8203,9.3086 20.8203,20.8008"
         inkscape:connector-curvature="0"
         id="path38_3_" />
      <path
         style="fill:#000000"
         d="m 1016.7246,1537.0586 49.5508,-7.5391 c 2.0996,9.6016 6.3672,16.8868 12.8125,21.875 6.4355,4.9805 15.459,7.461 27.0508,7.461 12.7636,0 22.3633,-2.3516 28.8086,-7.0313 4.3359,-3.2812 6.4941,-7.664 6.4941,-13.164 0,-3.75 -1.1621,-6.8555 -3.5156,-9.3243 -2.4414,-2.3359 -7.959,-4.4921 -16.5039,-6.5039 -39.8047,-8.7695 -65.0489,-16.7968 -75.7129,-24.0547 -14.7559,-10.0781 -22.1289,-24.082 -22.1289,-41.9921 0,-16.1524 6.3672,-29.7344 19.1406,-40.75 12.7539,-11.0079 32.5586,-16.5157 59.375,-16.5157 25.5273,0 44.5117,4.1602 56.9238,12.4727 12.4024,8.3281 20.9668,20.6133 25.6446,36.8828 l -46.5528,8.6133 c -2.0019,-7.2539 -5.7715,-12.8203 -11.3379,-16.6875 -5.5469,-3.8672 -13.4961,-5.793 -23.7988,-5.793 -12.998,0 -22.3047,1.8086 -27.9297,5.4414 -3.75,2.586 -5.625,5.9258 -5.625,10.0195 0,3.504 1.6504,6.504 4.9317,8.9532 4.4433,3.2734 19.8046,7.9101 46.1035,13.8867 26.289,5.9687 44.6582,13.2812 55.0781,21.9531 10.3027,8.7813 15.4492,21.0157 15.4492,36.711 0,17.0976 -7.1386,31.7968 -21.4355,44.1015 -14.2969,12.293 -35.4199,18.4453 -63.4082,18.4453 -25.4004,0 -45.5176,-5.1562 -60.3418,-15.457 -14.8242,-10.3047 -24.5117,-24.3164 -29.0723,-42.0039"
         inkscape:connector-curvature="0"
         id="path14_3_" />
    </g>
    <text
       xml:space="preserve"
       style="font-style:normal;font-variant:normal;font-weight:normal;font-stretch:normal;font-size:16.25px;line-height:125%;font-family:Arial;-inkscape-font-specification:Arial;text-align:center;letter-spacing:0px;word-spacing:0px;text-anchor:middle;fill:#019193;fill-opacity:1;stroke:none;stroke-width:1px;stroke-linecap:butt;stroke-linejoin:miter;stroke-opacity:1;filter:url(#filter4619)"
       x="415.94336"
       y="480.87753"
       id="text4214"
       sodipodi:linespacing="125%"><tspan
         sodipodi:role="line"
         id="tspan4216"
         x="415.94336"
         y="480.87753"
         style="font-style:normal;font-variant:normal;font-weight:bold;font-stretch:normal;font-family:Arial;-inkscape-font-specification:'Arial Bold';fill:#019193;fill-opacity:1;">karlsruhe</tspan></text>
    <g
       transform="matrix(0.10438138,0,0,0.10438138,250.7998,380.40797)"
       id="layer1-4"
       inkscape:label="Layer 1"
       style="fill:#000000">
      <path
         inkscape:connector-curvature="0"
         id="path40"
         style="fill:#000000;fill-opacity:1;fill-rule:nonzero;stroke:none"
         d="m 373.43023,842.8457 c 1.22506,-0.70516 1.67923,-1.95013 2.22702,-1.50394 1.43421,-1.5856 3.28873,-9.87216 3.58951,-12.48163 1.02785,1.03781 2.05172,2.07961 3.07559,3.11742 0.21513,-1.60353 0.43027,-3.21105 0.64739,-4.81856 0.10358,5.21894 10.61119,-5.95995 11.5733,-5.21097 1.3386,-1.60752 1.66528,-3.38036 0.9422,-5.34444 3.43215,-2.09355 4.23093,0.51791 5.88426,-1.8585 0.0977,0.69121 21.53909,-18.43562 16.63886,-20.31802 3.84051,0.93821 4.55562,0.0797 2.14734,-2.58756 1.41031,0.56572 2.8246,1.13144 4.22694,1.69317 -0.0856,0.0916 -1.08362,-2.31665 -1.35254,-2.49195 0.82667,-1.04578 2.32263,1.74695 2.58557,2.15132 0.57568,-2.64931 4.54167,-4.06958 0.4462,-6.30655 1.57166,-0.008 3.14332,0.0677 4.70701,0.23107 1.57564,-12.4418 19.77819,-12.10118 21.96537,-21.80004 2.16526,1.32864 5.90218,-3.85445 5.69104,-3.35646 17.2982,-11.71274 15.36002,-54.13955 -24.45533,-28.28985 0.49002,-0.31274 -2.49593,3.39629 -1.62544,2.88037 -1.69317,0.30876 -21.38571,21.25225 -20.38973,22.68448 -6.20297,4.7329 0.72707,10.37015 3.32857,14.31424 -12.30236,-5.56953 -13.94972,-6.64718 -20.92159,7.57543 -3.13335,-0.0598 -14.49949,22.78806 -18.15076,19.43757 -3.31463,4.79068 1.77683,15.90184 6.82446,19.73438 -2.64333,2.85448 -13.35212,-10.23072 -14.61303,-12.04142 1.50791,3.45008 -0.98005,0.41832 -2.15929,0.15729 -1.34856,1.42824 0.38046,6.70893 1.23502,7.60731 -0.85057,1.41031 -4.88629,-3.04572 -5.76674,-3.25487 0.69121,1.42226 1.38641,2.8505 2.07961,4.27873 -6.34639,-6.83442 -10.57333,0.0956 -11.42191,-0.5697 -2.57362,1.75094 -5.33049,2.96006 -8.27262,3.63334 -14.62698,21.80004 3.31462,41.61808 25.05092,25.49912 0.0279,0.30676 0.0419,0.66133 0.0279,1.06968 0.79878,-1.67325 2.96404,-3.59549 2.71305,-2.96404 0.33465,-0.78483 1.89436,-1.58959 1.52186,-0.8665 z m 108.38468,11.74859 c -0.56173,-5.19902 -7.55551,-8.92797 -7.36628,-8.98773 -0.80276,-0.80675 -1.76089,-1.35055 -2.87838,-1.62345 0.13944,-0.31075 -22.04704,4.47195 -26.42538,9.38214 -3.57557,4.01381 -16.07514,14.55129 -12.32826,19.52323 -1.0637,-0.67528 -1.96806,-1.52784 -2.69512,-2.55768 -4.95003,2.29075 -0.50795,8.18896 0.50397,11.34223 -6.17708,-3.48195 -4.89625,-12.02348 -13.73459,-6.10935 -2.8246,1.89635 -10.30641,10.86815 -11.73664,9.00965 -6.50575,3.70505 -16.68468,10.29446 -24.33183,15.49349 -12.41789,8.46584 -5.84242,13.70669 -6.81251,24.26609 -1.5856,17.37987 75.75235,-14.82618 62.88427,-30.49496 0.79479,-1.06968 3.17519,1.49596 3.80863,1.80273 -0.0816,-1.74098 -0.53982,-3.38435 -1.36449,-4.91019 1.78281,-0.33664 4.35045,2.33059 5.08349,3.21104 0.44421,-3.07559 10.26259,-6.61929 8.91005,-8.44791 4.20702,-0.66333 9.34031,-2.6274 12.27846,-5.84243 -0.008,0.31274 -0.0677,0.62548 -0.1753,0.92826 7.20294,-3.06563 17.30418,-17.21853 16.37991,-25.98516 z M 64.190569,817.98401 c 0.321503,-0.17131 0.586832,-0.38644 0.835828,-0.62548 4.897439,-3.80066 3.956635,-6.88023 3.029974,-9.89806 -0.03904,-0.13147 -0.07012,-0.26891 -0.105972,-0.40835 0.01339,-0.0179 0.01339,-0.0417 0.02032,-0.0637 -0.01323,0.006 -0.02032,0.006 -0.03108,0.006 -0.546196,-2.30072 -0.48564,-6.33444 0.176488,-11.7227 0.224893,0.008 0.274692,-0.0358 0.03208,-0.22111 0.136855,-1.07765 0.297997,-2.21705 0.478469,-3.40426 0.64201,-1.49597 0.962516,-3.16125 0.55018,-3.31463 l 0,-0.003 c 0.01793,-0.0459 0.05976,-0.2729 0.116729,-0.62747 0.05976,-0.35059 0.125302,-0.69321 0.190631,-1.0418 1.91089,-10.19088 -0.648982,-18.87783 -1.809897,-19.55908 -0.662129,-0.38246 -1.634804,-1.44218 -2.350716,-2.28279 -3.020612,-4.25682 -6.606145,-12.80434 -7.55153,-12.61908 -10.348047,-4.13133 -20.835531,-17.47151 -33.086899,-10.08332 -12.523668,7.56348 -4.180731,23.02111 0.964907,32.35346 8.138164,14.75447 4.948035,32.19808 19.234193,43.65386 -0.694996,-0.55974 11.01874,9.1949 13.852706,10.83229 0.444207,0.25697 9.988497,1.15136 8.310866,-6.24679 2.227015,-0.46214 3.321797,-1.80472 3.303073,-4.01381 -0.761727,2.33458 -5.628092,-0.29281 -6.160344,-0.70913 z m 260.141761,54.73316 c -2.38437,-18.30215 -15.85403,-28.5508 -15.85403,-28.5508 0,0 -0.0178,0.0398 -0.0478,0.10151 -1.81867,-1.89834 -5.43009,-3.63135 -12.50355,-5.53567 -8.94591,-2.40828 -16.28231,-15.64288 -25.85966,-22.37571 -9.94388,-6.98382 -15.99546,-5.94203 -26.9154,-9.18494 -11.03548,-3.28276 -13.64495,-12.13703 -27.24408,-10.61119 -9.15904,1.02785 -21.69446,5.62331 -16.15681,16.57712 -6.84239,-2.59553 -4.20104,1.57165 -4.20104,1.57165 -17.66274,8.13319 4.3365,34.47689 -0.40836,42.91286 -12.80433,-5.38627 -12.66888,11.51553 -18.17865,20.92357 -5.74083,9.7905 -19.82003,9.04351 -18.17068,20.24233 -18.2424,-12.11313 -25.58477,-9.62915 -46.26931,-9.43792 -18.747765,0.18127 -29.123095,-7.95789 -36.985175,16.88786 -6.118911,19.37383 -0.39441,41.33322 8.85886,61.19907 l 4.50761,-0.38445 35.078465,0 0,15.84009 11.24861,6.33244 0,-11.87409 19.82003,-2.2051 0,4.7827 14.18078,0 0,-6.05755 17.95755,-3.16722 0,-7.47783 23.28007,0 0,7.47783 6.70295,1.43819 0,-23.76411 9.33434,-18.19459 9.33633,18.19459 0,29.50893 10.89006,2.28478 0,-76.085 15.07915,-4.30065 12.45575,5.02373 0,69.6928 18.42366,6.33842 0,-13.6549 9.18494,0 8.14314,3.11344 0,22.09286 10.28849,-3.16723 0,-6.08146 12.69279,0.01 0,-9.87216 10.4817,0 c 0.10359,-0.18526 0.16733,-0.33266 0.18924,-0.42628 0.0897,-1.93221 9.60126,-7.15912 10.40004,-12.11711 0.18923,-0.50795 0.33266,-1.06371 0.41433,-1.69317 2.07363,-15.80822 -3.48196,-37.28954 -6.07748,-42.41885 -2.59951,-5.13328 -22.05103,-28.33965 -24.07686,-43.90883 z m -14.44372,-79.66058 c 8.2049,-7.40014 18.03723,-2.78277 22.79005,-14.39392 l 0.0937,0.003 c 0.48006,-1.01789 0.44819,-3.03973 0.42628,-3.1214 2.33458,0.87248 2.96802,-1.8585 3.54769,-1.6613 1.12745,-2.33059 0.39042,-4.85043 0.8665,-3.99588 1.28083,-1.67524 1.16928,-4.40223 2.91623,-6.99776 -4.37036,-3.98791 1.34259,-1.17725 1.88042,-3.86242 -1.61748,-0.9661 -0.53385,-2.2549 1.20912,-1.76487 4.50382,-3.63334 3.82656,-10.70282 8.75268,-12.69677 -1.58162,-0.73106 2.00192,-8.76265 6.49978,-6.63324 1.08561,-3.65127 14.87796,-38.88909 20.47339,-37.83733 -0.76292,-2.4302 -2.33857,-4.12336 -4.73291,-5.08349 4.27077,0.38644 11.58725,-11.91592 14.11904,-10.34426 2.23697,-2.10949 3.37836,-4.76079 3.45008,-4.27077 3.84448,-1.46011 11.53744,-15.57117 12.05535,-20.14273 1.22506,-10.90002 -3.83253,-30.00095 -26.83572,-20.322 -9.9379,4.18113 -21.74227,27.37355 -22.59881,29.87147 -0.0144,0.17529 -0.0359,0.3486 -0.0996,0.50596 0.0319,0.14932 0.20119,7.54157 0.1972,10.1869 0.003,3.03176 -6.94199,3.61939 -6.94199,3.61939 -0.71511,1.06371 3.02181,4.67116 -1.27286,1.00993 0.31672,0.14932 -1.49397,6.01772 -1.64337,5.98186 -0.44421,-0.1972 -33.63828,37.73574 -30.52484,52.57786 -0.43225,-0.11554 -0.86849,-0.22908 -1.29876,-0.34063 -0.22509,0.95216 -0.17927,1.90033 0.12159,2.83855 -10.98567,-0.1533 -12.18284,17.59501 -18.52127,23.04502 0.42628,1.01789 1.15933,1.54377 2.20909,1.59357 -14.73654,5.68904 7.82841,26.78393 12.8621,22.23428 z M 247.34099,659.94568 c 1.32266,0.94618 2.47999,2.01188 1.48998,2.41625 1.92822,-0.0497 0.45815,1.31469 -0.12939,0.94219 4.30662,7.50373 27.58868,11.24065 27.05882,11.26256 -0.25697,0.01 -0.21912,0.32868 0.56372,1.42425 1.16132,-0.69519 3.47996,-4.76477 4.42017,-4.85839 -0.0478,-1.30673 0.2968,-5.25878 -1.75492,-4.56359 0.75296,-0.63344 0.48205,-1.83659 -0.42031,-1.88639 1.87643,-2.1553 10.39606,-12.8621 4.80263,-11.71672 0.78284,-1.42027 4.59147,-4.19508 4.93807,-4.00584 0.91232,-1.44816 6.13923,-15.29827 3.79071,-23.79997 -3.13934,-11.38805 -12.92784,-16.26238 -23.1008,-10.21279 -9.33234,5.55558 -24.71826,32.92117 -21.42555,40.56433 0.83464,-1.08562 0.73105,4.0875 -0.23306,4.43411 z m -12.77645,118.58751 c 1.89634,-1.14538 7.12325,-10.82831 7.32843,-9.86818 2.92818,5.64522 10.55342,-4.53969 11.61513,-5.89223 -1.45214,-2.58955 0.78683,-1.76886 2.00192,-2.31665 0.90436,-1.34258 0.10757,-2.45609 -2.17522,-2.26287 -1.239,-0.92626 2.32462,-2.88436 1.96607,-3.9162 2.9242,2.11546 3.2947,-11.70477 5.02572,-12.17288 6.8145,-13.80431 -3.58952,-13.66487 -13.64694,-18.06312 5.04365,-0.30477 17.84002,2.57361 16.33211,-3.223 0,0 2.51584,-2.21904 2.47401,-3.77875 8.04753,-14.77439 9.8164,-36.34934 7.69695,-38.40703 -2.49992,-2.41227 -20.47937,-11.53347 -23.24023,-6.27867 6.35436,3.13137 -5.56953,2.39434 -5.41615,2.17522 -5.15719,1.36051 -24.53699,68.4797 -28.39742,84.09469 0.15936,-0.0717 2.24893,5.84243 2.27482,5.76673 2.93018,-3.08156 -1.12546,9.16702 -4.03173,13.27644 -2.13339,1.62544 13.36408,4.99783 20.19253,0.8665" />
    </g>
  </g>
</svg>
