<?xml version="1.0" encoding="UTF-8" standalone="no"?>
<!-- Created with Inkscape (http://www.inkscape.org/) -->

<svg
   xmlns:dc="http://purl.org/dc/elements/1.1/"
   xmlns:cc="http://creativecommons.org/ns#"
   xmlns:rdf="http://www.w3.org/1999/02/22-rdf-syntax-ns#"
   xmlns:svg="http://www.w3.org/2000/svg"
   xmlns="http://www.w3.org/2000/svg"
   xmlns:sodipodi="http://sodipodi.sourceforge.net/DTD/sodipodi-0.dtd"
   xmlns:inkscape="http://www.inkscape.org/namespaces/inkscape"
   width="200"
   height="165"
   id="svg3020"
   version="1.1"
   inkscape:version="0.48.4 r9939"
   sodipodi:docname="placeholder.svg">
  <defs
     id="defs3022" />
  <sodipodi:namedview
     id="base"
     pagecolor="#bcbcbc"
     bordercolor="#666666"
     borderopacity="1.0"
     inkscape:pageopacity="1"
     inkscape:pageshadow="2"
     inkscape:zoom="0.98994949"
     inkscape:cx="-153.94783"
     inkscape:cy="115.47341"
     inkscape:document-units="px"
     inkscape:current-layer="layer1"
     showgrid="false"
     inkscape:window-width="1280"
     inkscape:window-height="962"
     inkscape:window-x="-8"
     inkscape:window-y="-8"
     inkscape:window-maximized="1" />
  <metadata
     id="metadata3025">
    <rdf:RDF>
      <cc:Work
         rdf:about="">
        <dc:format>image/svg+xml</dc:format>
        <dc:type
           rdf:resource="http://purl.org/dc/dcmitype/StillImage" />
        <dc:title />
      </cc:Work>
    </rdf:RDF>
  </metadata>
  <g
     inkscape:label="Layer 1"
     inkscape:groupmode="layer"
     id="layer1"
     transform="translate(0,-887.36215)">
    <path
       d="m 137.97989,983.33314 c 0.38698,-0.22276 0.53045,-0.61603 0.70349,-0.47508 0.45304,-0.50087 1.03887,-3.11849 1.13388,-3.94279 0.32468,0.32783 0.64811,0.65692 0.97154,0.98475 0.0679,-0.50653 0.13591,-1.01433 0.2045,-1.52211 0.0327,1.64859 3.35194,-1.88268 3.65586,-1.64609 0.42284,-0.50779 0.52604,-1.06781 0.29762,-1.68824 1.08418,-0.66133 1.3365,0.1636 1.85878,-0.58708 0.0308,0.21835 6.80391,-5.82357 5.25599,-6.41819 1.21317,0.29637 1.43906,0.0251 0.67832,-0.81738 0.4455,0.1787 0.89226,0.3574 1.33523,0.53484 -0.027,0.0289 -0.3423,-0.7318 -0.42724,-0.78717 0.26113,-0.33035 0.73369,0.55184 0.81675,0.67957 0.18185,-0.83688 1.43465,-1.28553 0.14094,-1.99215 0.49647,-0.003 0.99294,0.0213 1.48689,0.073 0.49773,-3.93021 6.24768,-3.82262 6.93858,-6.88637 0.68398,0.4197 1.86443,-1.21757 1.79773,-1.06026 5.46428,-3.69991 4.85203,-17.102 -7.72513,-8.9364 0.15479,-0.0988 -0.78842,1.07284 -0.51345,0.90986 -0.53486,0.0975 -6.75548,6.71333 -6.44086,7.16575 -1.95944,1.49506 0.22967,3.2758 1.05145,4.52169 -3.88616,-1.75935 -4.40654,-2.09976 -6.60886,2.39298 -0.98979,-0.0189 -4.58021,7.19845 -5.7336,6.14007 -1.04705,1.51332 0.56128,5.02319 2.15577,6.23385 -0.835,0.90169 -4.21778,-3.23176 -4.61608,-3.80374 0.47633,1.08984 -0.30958,0.13215 -0.68209,0.0497 -0.42599,0.45117 0.12018,2.11927 0.39013,2.40306 -0.26869,0.44549 -1.54351,-0.96212 -1.82164,-1.02818 0.21834,0.44928 0.43796,0.90044 0.65692,1.3516 -2.00474,-2.1589 -3.33998,0.0302 -3.60804,-0.17997 -0.81297,0.55311 -1.68383,0.93506 -2.61322,1.14773 -4.62047,6.88636 1.04705,13.14663 7.91328,8.05485 0.009,0.0969 0.0133,0.20891 0.009,0.3379 0.25233,-0.52856 0.9363,-1.13576 0.85702,-0.9363 0.10571,-0.24792 0.5984,-0.50214 0.48074,-0.27371 z m 34.23734,3.71123 c -0.17744,-1.6423 -2.38669,-2.82024 -2.32691,-2.83912 -0.25358,-0.25483 -0.55623,-0.42662 -0.90924,-0.51281 0.044,-0.0982 -6.96439,1.41262 -8.34745,2.96369 -1.12948,1.26791 -5.07793,4.59657 -3.89434,6.16714 -0.33601,-0.21332 -0.62168,-0.48262 -0.85136,-0.80794 -1.56363,0.72361 -0.16045,2.5868 0.15921,3.5829 -1.95127,-1.0999 -1.54667,-3.7981 -4.33859,-1.9299 -0.89226,0.599 -3.25566,3.4331 -3.70745,2.846 -2.05508,1.1704 -5.27048,3.2519 -7.68612,4.89417 -3.92265,2.6743 -1.84554,4.3298 -2.15198,7.6654 -0.50087,5.49 23.9292,-4.6834 19.86434,-9.63297 0.25106,-0.3379 1.00301,0.4726 1.20309,0.56947 -0.0257,-0.54997 -0.17052,-1.06907 -0.43102,-1.55107 0.56317,-0.1063 1.37425,0.7362 1.60581,1.0143 0.14032,-0.9715 3.24182,-2.0909 2.81457,-2.6686 1.32895,-0.2095 2.95049,-0.8299 3.87862,-1.8455 -0.003,0.099 -0.0213,0.1976 -0.0554,0.2932 2.27533,-0.9684 5.46618,-5.4391 5.17422,-8.20836 z M 40.295008,975.47965 c 0.101559,-0.0541 0.185373,-0.12208 0.264027,-0.19759 1.547039,-1.20058 1.249851,-2.17338 0.95713,-3.12667 -0.01232,-0.0415 -0.02215,-0.085 -0.03347,-0.129 0.0042,-0.005 0.0042,-0.0132 0.0064,-0.0201 -0.0042,0.002 -0.0064,0.002 -0.0098,0.002 -0.172537,-0.72677 -0.153408,-2.00096 0.05575,-3.70306 0.07104,0.003 0.08677,-0.0113 0.01013,-0.0699 0.04323,-0.34042 0.09413,-0.70033 0.151143,-1.07536 0.202802,-0.47255 0.304046,-0.99859 0.173794,-1.04705 l 0,-7.8e-4 c 0.0056,-0.0145 0.01888,-0.0862 0.03688,-0.19821 0.01888,-0.11075 0.03958,-0.21898 0.06021,-0.3291 0.603626,-3.21917 -0.205005,-5.96327 -0.571723,-6.17846 -0.209158,-0.12082 -0.516414,-0.45557 -0.742562,-0.72111 -0.954173,-1.34468 -2.086797,-4.04472 -2.385432,-3.98621 -3.268816,-1.30504 -6.581679,-5.51903 -10.45173,-3.18519 -3.956067,2.38922 -1.32064,7.27207 0.304801,10.22006 2.570743,4.66074 1.563021,10.17095 6.075837,13.78968 -0.21954,-0.17681 3.48068,2.90456 4.375894,3.42179 0.14032,0.0812 3.15524,0.36371 2.625298,-1.97328 0.703485,-0.14598 1.049312,-0.57009 1.043398,-1.26791 -0.24062,0.73747 -1.777843,-0.0925 -1.945975,-0.224 z m 82.175482,17.28951 c -0.7532,-5.78142 -5.00809,-9.01885 -5.00809,-9.01885 0,0 -0.005,0.0127 -0.0151,0.0321 -0.57449,-0.59966 -1.71528,-1.14709 -3.94971,-1.74865 -2.8259,-0.76074 -5.14337,-4.94138 -8.16874,-7.0682 -3.14114,-2.2061 -5.05277,-1.87701 -8.502235,-2.9014 -3.485962,-1.03699 -4.310262,-3.83394 -8.606054,-3.35195 -2.893224,0.32468 -6.853004,1.77633 -5.103731,5.23651 -2.161424,-0.8199 -1.327055,0.49646 -1.327055,0.49646 -5.579435,2.56917 1.369845,10.89081 -0.128995,13.55563 -4.044726,-1.70146 -4.001939,3.63761 -5.742405,6.60952 -1.813455,3.0927 -6.260896,2.8567 -5.739887,6.39427 -5.762542,-3.82637 -8.081905,-3.04177 -14.615888,-2.98137 -5.92218,0.057 -9.199615,-2.5137 -11.683147,5.33467 -1.932885,6.1199 -0.124588,13.0566 2.798402,19.332 l 1.423897,-0.1215 11.080841,0 0,5.0037 3.553293,2.0004 0,-3.7509 6.260896,-0.6966 0,1.5108 4.479528,0 0,-1.9135 5.672562,-1.0005 0,-2.3622 7.353878,0 0,2.3622 2.117377,0.4543 0,-7.5068 2.9486,-5.7474 2.949228,5.7474 0,9.3215 3.44003,0.7218 0,-24.0343 4.763305,-1.3585 3.93462,1.5869 0,22.0151 5.8198,2.0022 0,-4.3134 2.9014,0 2.57233,0.9834 0,6.9789 3.24999,-1.0004 0,-1.9211 4.0095,0 0,-3.1186 3.31103,0 c 0.0327,-0.058 0.0528,-0.105 0.0598,-0.1345 0.0283,-0.6104 3.03291,-2.2615 3.28524,-3.8277 0.0598,-0.1604 0.10508,-0.336 0.13088,-0.5349 0.65503,-4.9936 -1.09991,-11.7792 -1.91981,-13.3996 -0.82114,-1.6214 -6.96563,-8.95197 -7.60556,-13.87009 z m -4.56258,-25.16378 c 2.59181,-2.3376 5.69772,-0.87903 7.19907,-4.54685 l 0.0296,7.9e-4 c 0.15164,-0.32155 0.14158,-0.96021 0.13465,-0.98601 0.73747,0.2756 0.93756,-0.58708 1.12068,-0.52479 0.35614,-0.7362 0.12332,-1.53218 0.27371,-1.26224 0.4046,-0.5292 0.36936,-1.39062 0.92121,-2.21051 -1.38055,-1.25972 0.4241,-0.37188 0.594,-1.22009 -0.51095,-0.30517 -0.16865,-0.71229 0.38194,-0.55749 1.42269,-1.14773 1.20876,-3.38089 2.76487,-4.01076 -0.49962,-0.23092 0.63237,-2.76801 2.05318,-2.09535 0.34294,-1.1534 4.69977,-12.28457 6.46729,-11.95233 -0.241,-0.76768 -0.73873,-1.30252 -1.49507,-1.60582 1.34909,0.12207 3.66028,-3.76408 4.46003,-3.26761 0.70663,-0.66637 1.06719,-1.50389 1.08984,-1.3491 1.21442,-0.46123 3.64452,-4.91872 3.80813,-6.36282 0.38698,-3.44319 -1.21065,-9.47692 -8.47707,-6.41946 -3.13925,1.32076 -6.8681,8.64696 -7.13867,9.43602 -0.004,0.0553 -0.0113,0.11011 -0.0315,0.15982 0.0101,0.0472 0.0635,2.38229 0.0623,3.21791 7.8e-4,0.9577 -2.19288,1.14333 -2.19288,1.14333 -0.2259,0.336 0.95454,1.47555 -0.40209,0.31902 0.10005,0.0472 -0.47193,1.90092 -0.51912,1.88958 -0.14032,-0.0623 -10.6259,11.92025 -9.6424,16.60869 -0.13655,-0.0365 -0.27435,-0.0723 -0.41026,-0.1076 -0.0711,0.30078 -0.0566,0.6003 0.0384,0.89666 -3.47022,-0.0485 -3.8484,5.55803 -5.85063,7.27963 0.13467,0.32153 0.36622,0.48766 0.69783,0.50339 -4.65508,1.7971 2.47289,8.4607 4.06297,7.02353 z M 98.149895,925.55734 c 0.41781,0.29889 0.7834,0.63552 0.47067,0.76327 0.6091,-0.0157 0.14472,0.41528 -0.0409,0.29762 1.36041,2.37034 8.714905,3.55078 8.547525,3.5577 -0.0812,0.004 -0.0693,0.10382 0.17807,0.4499 0.36685,-0.2196 1.09927,-1.50513 1.39628,-1.5347 -0.0151,-0.41278 0.0937,-1.66118 -0.55435,-1.44158 0.23785,-0.20009 0.15228,-0.58016 -0.13278,-0.59589 0.59274,-0.68083 3.28399,-4.06298 1.5171,-3.70116 0.24728,-0.44865 1.45038,-1.32518 1.55986,-1.26539 0.28819,-0.45745 1.93931,-4.83254 1.19744,-7.51811 -0.99168,-3.59735 -4.08374,-5.13709 -7.29724,-3.2261 -2.94797,1.75495 -7.808185,10.39938 -6.768055,12.81377 0.26365,-0.34293 0.23093,1.29118 -0.0736,1.40067 z m -4.03591,37.4603 c 0.59903,-0.36182 2.25014,-3.42054 2.31495,-3.11724 0.92498,1.78325 3.33369,-1.43402 3.669065,-1.86128 -0.458715,-0.818 0.24856,-0.55876 0.63239,-0.73181 0.28568,-0.42409 0.034,-0.77585 -0.68713,-0.71481 -0.391385,-0.29259 0.73433,-0.91113 0.62106,-1.23708 0.92371,0.66825 1.04075,-3.69738 1.58756,-3.84525 2.15261,-4.3606 -1.13388,-4.31656 -4.310885,-5.70591 1.59322,-0.0963 5.635415,0.81297 5.159095,-1.01811 0,0 0.79472,-0.70096 0.78151,-1.19366 2.54212,-4.66703 3.10087,-11.48229 2.43137,-12.13229 -0.7897,-0.762 -6.469165,-3.64327 -7.341295,-1.98335 2.007265,0.98916 -1.75934,0.75634 -1.71089,0.68712 -1.62909,0.42977 -7.750921,21.63188 -8.970383,26.56446 0.05034,-0.0227 0.710409,1.84554 0.718588,1.82162 0.925606,-0.97341 -0.355519,2.89575 -1.273572,4.19386 -0.673912,0.51347 4.221543,1.57876 6.378567,0.27373"
       style="fill:#ffffff;fill-opacity:1;fill-rule:nonzero;stroke:none"
       id="path40"
       inkscape:connector-curvature="0" />
  </g>
</svg>
